<?xml version="1.0" standalone="no"?>
<!DOCTYPE svg PUBLIC "-//W3C//DTD SVG 20010904//EN"
 "http://www.w3.org/TR/2001/REC-SVG-20010904/DTD/svg10.dtd">
<svg version="1.0" xmlns="http://www.w3.org/2000/svg"
 width="412.000000pt" height="412.000000pt" viewBox="0 0 412.000000 412.000000"
 preserveAspectRatio="xMidYMid meet">
<metadata>
Created by potrace 1.14, written by Peter Selinger 2001-2017
</metadata>
<g transform="translate(0.000000,412.000000) scale(0.100000,-0.100000)"
fill="#000000" stroke="none">
<path d="M1920 4035 c-1 -11 -3 -45 -5 -75 -2 -30 -6 -84 -9 -120 -8 -125 -9
-337 -1 -329 2 3 7 66 10 140 3 74 7 150 9 169 14 122 16 179 7 205 -7 23 -10
25 -11 10z"/>
<path d="M1965 4018 c-11 -36 -9 -68 6 -68 5 0 9 23 9 50 0 28 -1 50 -3 50 -1
0 -7 -15 -12 -32z"/>
<path d="M2079 4040 c-1 -8 -2 -35 -3 -59 -1 -30 -7 -47 -18 -55 -22 -14 -32
-3 -19 22 6 11 7 23 3 26 -4 4 -7 13 -8 19 -5 53 -5 53 -16 27 -6 -14 -11 -72
-13 -130 -1 -58 -6 -154 -10 -215 -4 -60 -4 -107 0 -103 3 3 8 35 11 70 8 129
28 249 42 261 13 10 14 2 7 -68 -4 -44 -9 -100 -10 -125 -3 -50 -12 -136 -21
-191 -3 -21 -1 -39 4 -43 5 -3 14 52 21 122 7 70 17 154 22 187 4 33 11 89 14
125 4 36 8 77 9 92 2 14 -1 32 -5 40 -7 10 -9 10 -10 -2z"/>
<path d="M2141 4040 c0 -8 -8 -27 -15 -42 -8 -16 -15 -57 -15 -95 0 -69 -7
-176 -16 -248 -13 -114 -17 -159 -11 -154 6 6 26 159 41 304 3 33 10 92 16
130 6 39 9 82 6 95 -2 14 -5 18 -6 10z"/>
<path d="M1856 4013 c-9 -43 -4 -383 5 -383 5 0 9 42 10 93 1 50 2 103 4 117
12 93 13 120 8 158 -6 48 -19 55 -27 15z"/>
<path d="M2186 3988 c-8 -29 -18 -96 -21 -148 -8 -130 -12 -163 -36 -332 -11
-80 -19 -159 -17 -175 2 -15 9 22 17 82 7 61 19 153 27 205 8 52 20 138 25
190 6 52 15 100 19 105 8 11 14 125 6 125 -2 0 -11 -24 -20 -52z"/>
<path d="M2252 4020 c0 -14 2 -19 5 -12 2 6 2 18 0 25 -3 6 -5 1 -5 -13z"/>
<path d="M1712 3990 c0 -19 2 -27 5 -17 2 9 2 25 0 35 -3 9 -5 1 -5 -18z"/>
<path d="M2292 3995 c-9 -19 -9 -25 1 -25 8 -1 7 -5 -3 -13 -9 -7 -17 -29 -17
-52 -2 -40 -26 -233 -42 -332 -4 -29 -5 -50 -1 -48 4 3 10 21 13 42 3 21 8 47
11 59 2 12 7 45 11 75 3 30 13 83 22 119 14 59 28 200 20 200 -2 0 -9 -11 -15
-25z"/>
<path d="M1756 3947 c-5 -26 -6 -87 -2 -135 3 -48 6 -111 6 -141 0 -91 14 -46
16 52 1 51 2 115 4 142 1 28 0 57 -3 65 -3 8 -8 26 -10 40 -2 18 -6 12 -11
-23z"/>
<path d="M2398 3953 c-7 -21 -13 -42 -14 -48 0 -5 -3 -23 -7 -40 -3 -16 -9
-50 -11 -75 -3 -25 -14 -101 -25 -169 -12 -69 -19 -126 -17 -129 3 -2 8 13 11
34 14 80 37 192 57 274 19 79 33 190 24 190 -3 0 -10 -17 -18 -37z"/>
<path d="M1661 3950 c-1 -19 -5 -41 -9 -48 -5 -7 -5 -43 0 -80 11 -85 17 -184
17 -291 1 -46 4 -82 7 -79 3 3 5 89 4 191 0 116 3 188 10 192 5 3 11 -4 12
-17 1 -13 2 -32 3 -43 1 -11 3 -55 4 -98 0 -43 4 -76 9 -73 6 4 9 238 3 316
-1 22 -3 23 -12 7 -5 -9 -7 -22 -4 -27 8 -13 -4 -50 -15 -50 -6 0 -8 12 -7 28
2 15 -2 45 -9 67 l-12 40 -1 -35z"/>
<path d="M1809 3974 c-7 -55 -2 -149 8 -163 11 -13 13 -1 9 73 -3 48 -7 91
-10 94 -3 3 -7 1 -7 -4z"/>
<path d="M2341 3949 c-14 -42 -14 -62 2 -57 13 5 29 88 16 88 -4 0 -12 -14
-18 -31z"/>
<path d="M2462 3969 c-1 -9 -11 -43 -21 -76 -10 -32 -22 -84 -25 -114 -4 -30
-9 -73 -11 -96 -3 -23 -10 -54 -15 -69 -10 -24 -7 -44 4 -33 3 3 15 52 26 109
12 58 28 122 35 143 9 27 10 37 1 37 -7 0 -6 3 2 9 9 5 12 24 9 57 -2 27 -4
42 -5 33z"/>
<path d="M1607 3963 c-11 -20 13 -419 24 -402 4 7 6 16 3 20 -6 11 -7 296 0
307 3 6 2 12 -4 14 -6 2 -11 18 -13 36 -2 34 -3 37 -10 25z"/>
<path d="M1965 3930 c-4 -6 -8 -53 -11 -104 -2 -51 -6 -129 -8 -172 -3 -45 -2
-73 3 -64 5 8 12 58 15 110 4 52 9 128 12 168 6 69 3 85 -11 62z"/>
<path d="M1395 3920 c-3 -5 -1 -10 4 -10 6 0 11 5 11 10 0 6 -2 10 -4 10 -3 0
-8 -4 -11 -10z"/>
<path d="M1506 3853 c-4 -46 -4 -87 -1 -93 4 -6 8 -30 10 -53 10 -150 19 -227
24 -227 3 0 5 69 3 153 -3 118 -1 149 8 140 7 -6 13 -36 14 -67 1 -31 6 -60
12 -66 12 -12 12 194 0 235 -8 26 -10 27 -16 10 -4 -11 -4 -22 0 -25 9 -6 0
-70 -10 -70 -4 0 -14 33 -22 73 l-14 72 -8 -82z"/>
<path d="M2226 3895 c-5 -16 -10 -50 -12 -75 -6 -76 -14 -142 -18 -149 -2 -3
-7 -36 -10 -73 -3 -36 -8 -72 -10 -80 -10 -29 -16 -119 -8 -114 5 3 12 36 16
73 9 86 9 90 36 255 12 76 20 150 18 165 l-3 28 -9 -30z"/>
<path d="M2498 3878 c-9 -24 -23 -86 -33 -138 -9 -52 -19 -106 -22 -120 -3
-14 -3 -22 1 -19 8 7 54 185 61 232 2 16 7 42 10 58 10 43 0 35 -17 -13z"/>
<path d="M1449 3850 c-2 -36 -1 -87 3 -115 4 -27 11 -86 14 -130 11 -129 23
-140 18 -16 -2 62 -7 118 -10 123 -3 5 -2 14 4 21 5 8 3 43 -8 97 l-17 85 -4
-65z"/>
<path d="M1300 3857 c4 -41 5 -41 8 -8 2 18 0 37 -5 42 -5 5 -6 -11 -3 -34z"/>
<path d="M2547 3858 c-17 -47 -70 -298 -64 -304 11 -11 92 331 82 344 -1 1 -9
-17 -18 -40z"/>
<path d="M2598 3818 c-32 -101 -101 -388 -95 -394 4 -4 25 70 83 286 8 30 17
62 21 70 4 8 7 22 8 31 1 8 5 32 9 52 11 60 1 43 -26 -45z"/>
<path d="M2326 3848 c-35 -224 -47 -311 -42 -316 3 -3 6 1 6 9 0 8 12 73 25
144 34 175 37 195 26 195 -6 0 -12 -15 -15 -32z"/>
<path d="M2786 3868 c-11 -35 -14 -60 -7 -52 10 11 23 64 16 64 -3 0 -7 -6 -9
-12z"/>
<path d="M1202 3830 c0 -19 2 -27 5 -17 2 9 2 25 0 35 -3 9 -5 1 -5 -18z"/>
<path d="M1252 3825 c0 -16 2 -22 5 -12 2 9 2 23 0 30 -3 6 -5 -1 -5 -18z"/>
<path d="M1149 3835 c-3 -5 0 -39 7 -75 6 -36 12 -51 12 -35 1 45 -12 122 -19
110z"/>
<path d="M2654 3817 c-16 -19 -25 -47 -40 -122 -8 -38 -20 -92 -28 -120 -19
-66 -36 -133 -38 -142 0 -5 -11 -46 -24 -93 -40 -143 -56 -211 -52 -216 3 -2
17 42 32 98 56 213 99 366 127 458 28 89 43 150 37 150 -2 -1 -8 -6 -14 -13z"/>
<path d="M1356 3796 c-4 -16 -4 -41 -1 -56 7 -33 -10 -50 -19 -18 -10 41 -26
7 -16 -36 5 -21 5 -48 0 -60 -4 -12 -4 -29 0 -37 4 -7 11 -36 14 -64 6 -52 11
-89 20 -140 2 -16 7 -57 11 -91 7 -64 25 -110 25 -64 0 14 -5 43 -10 65 -21
93 -46 400 -32 391 14 -9 31 -82 37 -166 8 -101 66 -524 78 -575 3 -11 6 -33
6 -48 1 -16 5 -26 10 -23 5 3 4 26 -1 53 -5 27 -11 66 -14 88 -2 22 -6 54 -9
70 -16 93 -56 445 -60 531 -3 56 -11 125 -18 155 -13 49 -14 51 -21 25z"/>
<path d="M1403 3806 c4 -10 7 -22 7 -27 0 -5 4 -9 9 -9 12 0 2 38 -12 47 -7 4
-8 0 -4 -11z"/>
<path d="M2951 3789 c-6 -18 -9 -34 -7 -36 2 -2 9 10 15 28 6 18 9 34 7 36 -2
2 -9 -10 -15 -28z"/>
<path d="M1100 3777 c0 -20 4 -37 10 -37 5 0 7 14 5 31 -6 45 -15 49 -15 6z"/>
<path d="M1311 3784 c0 -11 3 -14 6 -6 3 7 2 16 -1 19 -3 4 -6 -2 -5 -13z"/>
<path d="M2697 3768 c-9 -18 -22 -58 -27 -88 -13 -78 -12 -75 -74 -285 -31
-104 -55 -197 -54 -205 2 -8 19 39 37 105 39 141 73 253 106 350 23 68 42 155
34 155 -3 0 -12 -15 -22 -32z"/>
<path d="M1207 3783 c-3 -5 -1 -17 4 -28 7 -17 8 -17 8 8 1 27 -4 34 -12 20z"/>
<path d="M1810 3618 c0 -94 2 -169 4 -167 8 9 13 339 5 339 -5 0 -9 -77 -9
-172z"/>
<path d="M1050 3765 c0 -11 5 -27 10 -35 8 -12 10 -12 10 5 0 11 -5 27 -10 35
-8 12 -10 12 -10 -5z"/>
<path d="M1006 3752 c-8 -13 9 -104 25 -132 9 -16 0 77 -11 120 -4 17 -9 20
-14 12z"/>
<path d="M2750 3747 c0 -8 -9 -24 -20 -37 -15 -17 -17 -26 -8 -31 9 -6 9 -11
1 -21 -7 -7 -18 -40 -26 -73 -8 -33 -24 -96 -36 -139 -12 -44 -21 -84 -20 -90
1 -12 87 246 93 279 2 11 8 31 14 45 17 47 23 80 12 80 -5 0 -10 -6 -10 -13z"/>
<path d="M1417 3743 c-7 -11 4 -93 12 -93 7 0 6 88 -2 96 -3 3 -7 1 -10 -3z"/>
<path d="M2789 3709 c-11 -23 -24 -62 -29 -88 -4 -25 -20 -88 -34 -140 -15
-52 -25 -95 -23 -97 4 -4 101 293 111 339 9 39 0 34 -25 -14z"/>
<path d="M3095 3739 c-4 -6 -5 -12 -2 -15 2 -3 7 2 10 11 7 17 1 20 -8 4z"/>
<path d="M1264 3720 c1 -14 6 -31 10 -38 4 -6 2 -21 -5 -33 -11 -21 -12 -22
-22 -3 -6 10 -13 27 -14 38 -2 10 -7 25 -12 33 -15 28 -3 -122 22 -252 14 -71
28 -164 31 -205 8 -85 14 -110 26 -110 4 0 7 8 5 18 -8 35 -34 228 -34 242 0
8 -4 47 -9 85 -5 39 -8 77 -6 85 1 8 3 18 3 23 1 4 6 7 12 7 6 0 9 -9 6 -20
-3 -13 0 -20 10 -20 11 0 14 13 11 65 -2 36 -6 65 -9 65 -3 0 -11 10 -17 23
-10 22 -10 22 -8 -3z"/>
<path d="M957 3723 c-7 -11 19 -173 32 -203 9 -20 10 -15 5 30 -6 69 -25 180
-29 180 -2 0 -6 -3 -8 -7z"/>
<path d="M1111 3710 c0 -14 4 -32 9 -40 9 -13 10 -13 9 0 -1 8 -5 26 -9 40
l-8 25 -1 -25z"/>
<path d="M3140 3708 c0 -7 -3 -24 -6 -38 -4 -18 -1 -16 10 9 19 39 19 41 6 41
-5 0 -10 -6 -10 -12z"/>
<path d="M2927 3703 c-26 -42 -60 -112 -63 -128 -2 -11 -5 -27 -7 -35 -2 -8
-7 -28 -11 -45 -5 -16 -22 -70 -38 -120 -17 -49 -31 -95 -32 -102 -1 -7 -5
-16 -9 -19 -4 -4 -7 -14 -7 -23 0 -25 25 18 37 64 6 22 27 85 48 140 40 110
41 112 30 138 -6 13 -3 16 9 11 11 -4 16 0 16 13 0 10 5 24 12 31 7 7 9 12 6
12 -4 0 0 16 8 35 13 31 13 48 1 28z"/>
<path d="M2836 3663 c-10 -21 -21 -54 -23 -73 -3 -19 -35 -127 -72 -240 -69
-208 -87 -269 -77 -260 2 3 37 102 77 220 39 118 76 224 82 235 6 11 12 22 12
25 1 3 6 21 13 40 28 86 20 120 -12 53z"/>
<path d="M900 3676 c0 -7 9 -74 20 -147 11 -74 20 -168 18 -209 -1 -42 2 -81
6 -88 4 -7 2 -12 -3 -12 -6 0 -11 7 -11 15 0 8 -5 15 -11 15 -8 0 -10 -12 -6
-35 8 -47 -6 -44 -28 5 -10 22 -21 40 -24 40 -10 0 -1 -82 11 -108 9 -16 9
-25 1 -33 -8 -8 -16 -2 -30 22 -10 19 -21 43 -24 54 -4 11 -6 -6 -5 -37 0 -32
4 -58 9 -58 4 0 7 -7 7 -15 0 -22 -28 -18 -41 6 -6 12 -19 61 -29 108 -10 47
-19 75 -19 61 0 -14 4 -45 9 -70 6 -25 12 -65 15 -90 9 -69 10 -74 18 -87 8
-13 -1 -43 -14 -43 -5 0 -9 6 -9 14 0 7 -6 19 -14 25 -8 7 -17 31 -21 54 -12
82 -27 149 -31 144 -6 -5 23 -184 33 -207 4 -8 8 -42 9 -75 l2 -60 -14 40 c-7
22 -14 41 -14 43 0 1 -5 2 -11 2 -13 0 -2 -112 12 -121 5 -3 2 -14 -6 -25 -14
-19 -14 -19 -15 2 0 11 -9 38 -20 60 -19 37 -20 37 -16 9 3 -16 8 -57 11 -90
6 -63 31 -161 72 -284 32 -98 53 -200 42 -207 -5 -3 -10 0 -10 5 -2 14 -4 22
-12 41 -47 116 -101 327 -91 354 3 8 1 17 -5 21 -6 3 -11 17 -11 30 0 13 -4
27 -10 30 -17 10 -48 128 -55 210 -4 44 -8 95 -10 113 -3 28 -1 32 14 27 15
-4 17 0 13 25 -4 28 -5 29 -18 13 -13 -17 -13 -17 -14 0 0 10 7 25 16 34 17
18 15 69 -3 65 -8 -1 -13 8 -12 25 1 18 3 21 6 10 2 -10 12 -16 21 -15 12 2
18 -5 20 -27 2 -16 12 -70 23 -120 11 -49 22 -101 25 -115 3 -13 7 -27 10 -29
7 -7 4 34 -6 89 -5 29 -12 84 -15 123 -3 38 -8 73 -10 78 -7 10 5 39 16 39 4
0 11 -22 15 -50 4 -27 10 -50 14 -50 3 0 3 30 -2 66 -4 37 -5 71 -2 75 3 5 2
15 -3 22 -10 15 -11 97 0 97 4 0 7 -3 7 -7 6 -89 29 -183 46 -183 3 0 3 33 -1
73 -12 135 -12 167 -4 167 5 0 9 -8 10 -17 1 -30 6 -56 23 -116 9 -32 16 -66
16 -77 0 -10 5 -22 11 -26 8 -4 9 3 6 22 -9 43 -19 142 -21 201 -2 29 -5 55
-7 58 -7 6 -114 -101 -114 -114 0 -15 -15 -26 -15 -10 -1 17 -40 -27 -40 -45
0 -6 -14 -19 -30 -28 -17 -10 -37 -32 -45 -50 -7 -18 -17 -33 -22 -32 -12 1
-43 -42 -43 -60 0 -9 -5 -15 -11 -14 -6 2 -22 -17 -35 -41 -18 -33 -21 -47
-13 -58 6 -7 8 -13 4 -13 -4 0 -2 -6 4 -13 8 -11 6 -20 -9 -37 l-20 -23 0 36
c0 21 -4 37 -8 37 -14 0 -56 -84 -54 -107 1 -15 -4 -23 -14 -23 -19 0 -78
-125 -71 -151 3 -11 0 -19 -8 -19 -13 0 -47 -81 -70 -170 -55 -214 -82 -367
-73 -414 3 -15 1 -29 -3 -32 -12 -7 -12 -231 0 -238 5 -3 6 -26 4 -50 -6 -48
25 -246 38 -246 5 0 6 -6 3 -14 -3 -8 -1 -17 4 -20 5 -3 7 -16 5 -30 -4 -21
-2 -23 21 -19 20 4 28 0 35 -19 5 -13 24 -40 43 -60 18 -19 49 -55 68 -79 19
-24 69 -84 110 -134 41 -49 82 -98 90 -109 60 -77 284 -306 343 -350 20 -16
37 -32 37 -37 0 -11 -32 -12 -46 -1 -5 4 -1 -1 10 -11 14 -13 22 -14 31 -7 10
8 26 2 61 -25 43 -33 129 -104 175 -145 106 -94 200 -169 221 -176 11 -3 28
-13 37 -22 9 -10 32 -28 51 -42 68 -51 150 -122 150 -131 0 -17 -15 -9 -56 29
-22 20 -63 52 -90 71 -27 19 -54 40 -61 48 -6 8 -22 13 -35 11 -21 -3 -20 -5
15 -26 20 -13 37 -30 37 -38 0 -8 9 -14 20 -14 11 0 20 -5 20 -10 0 -6 8 -14
18 -17 9 -4 31 -21 49 -40 17 -18 36 -33 41 -33 5 0 16 -7 23 -16 12 -15 11
-16 -10 -9 -14 4 -33 16 -44 26 -11 10 -39 31 -61 46 -23 15 -50 36 -61 46
-11 10 -45 38 -76 60 -134 100 -255 193 -269 207 -8 8 -33 28 -54 44 -46 34
-226 187 -341 290 -76 68 -169 162 -232 236 -41 47 -163 223 -158 228 2 2 13
-2 25 -8 20 -11 21 -10 11 8 -7 14 -17 18 -31 15 -20 -5 -50 12 -50 28 0 13
28 11 32 -2 2 -6 15 -9 28 -6 l25 4 -22 8 c-13 4 -21 11 -18 15 3 4 -3 11 -12
14 -15 6 -15 8 -3 16 12 8 10 10 -7 10 -14 0 -23 -6 -23 -15 0 -8 -4 -15 -10
-15 -5 0 -10 5 -10 12 0 6 -3 8 -6 5 -13 -13 83 -243 108 -258 7 -5 13 -12 13
-16 1 -9 60 -73 68 -73 11 0 97 -95 97 -107 0 -7 7 -13 15 -13 8 0 15 -4 15
-10 0 -5 6 -10 13 -10 7 0 18 -9 25 -20 10 -16 10 -20 -1 -20 -14 0 -162 142
-188 181 -9 13 -20 21 -23 18 -21 -20 218 -353 266 -371 11 -4 17 -12 14 -17
-3 -5 7 -11 22 -14 15 -3 36 -13 47 -22 19 -15 18 -16 -15 -10 l-35 6 65 -62
c90 -85 226 -189 329 -253 96 -59 232 -129 271 -140 24 -7 24 -7 5 9 -11 8
-28 22 -38 31 -11 8 -21 13 -24 10 -3 -3 -17 6 -31 20 -15 13 -32 24 -39 24
-7 0 -13 7 -13 15 0 18 14 19 32 3 27 -25 97 -78 103 -78 4 0 26 -15 49 -34
40 -34 85 -56 109 -56 7 0 3 6 -8 12 -11 6 -24 17 -30 23 -5 6 -30 27 -55 46
-25 18 -63 51 -84 71 -22 21 -44 38 -51 38 -6 0 -22 12 -36 26 -13 14 -39 35
-59 47 -52 31 -180 126 -204 151 -12 12 -55 46 -96 76 -41 30 -87 66 -101 80
-15 14 -44 39 -65 55 -73 56 -116 99 -105 103 11 4 116 -70 123 -86 2 -4 23
-23 48 -41 25 -19 50 -40 55 -46 6 -7 34 -27 63 -44 28 -18 52 -37 52 -42 0
-5 7 -9 16 -9 10 0 14 -6 10 -15 -3 -9 0 -15 8 -15 7 0 25 -11 40 -25 15 -14
41 -32 58 -41 17 -9 43 -29 58 -45 16 -15 40 -31 54 -35 14 -3 26 -10 26 -15
0 -5 20 -22 45 -38 24 -15 57 -41 72 -57 31 -32 79 -74 138 -119 21 -16 47
-40 58 -51 10 -12 40 -27 65 -33 26 -7 62 -17 80 -22 18 -6 48 -13 65 -15 18
-2 77 -10 132 -19 148 -21 207 -20 223 6 7 12 16 18 19 15 3 -3 0 -12 -7 -21
-20 -24 7 -19 36 8 42 38 262 258 254 255 -8 -4 -121 -102 -197 -172 -29 -27
-56 -47 -58 -44 -3 3 46 55 110 115 63 61 115 115 115 121 0 6 8 13 19 17 10
3 36 23 57 44 67 66 131 95 74 33 -34 -36 -12 -25 38 19 70 61 66 26 -3 -38
-32 -29 -54 -53 -48 -53 13 0 154 116 166 136 12 20 28 17 20 -3 -7 -19 -83
-95 -147 -146 -21 -18 -66 -57 -99 -87 -33 -30 -71 -62 -84 -71 -14 -9 -38
-30 -53 -45 -15 -16 -44 -45 -64 -64 -20 -19 -32 -36 -27 -38 15 -5 31 6 112
79 41 37 92 82 113 100 22 19 62 55 89 82 28 26 54 47 59 47 4 0 8 6 8 13 0 7
12 20 28 29 28 17 79 60 120 99 12 12 25 19 28 16 7 -7 -104 -118 -181 -182
-27 -22 -74 -62 -105 -90 -31 -27 -77 -67 -101 -87 -98 -82 -109 -93 -109
-100 0 -5 4 -8 9 -8 12 0 126 96 210 178 36 34 67 62 71 62 3 0 48 41 100 91
89 84 148 131 202 160 22 12 22 11 8 -7 -8 -10 -24 -27 -35 -37 -11 -9 -31
-27 -45 -40 -14 -13 -59 -52 -100 -88 -41 -35 -81 -72 -88 -81 -7 -10 -19 -18
-25 -18 -7 0 -33 -21 -58 -48 -25 -26 -64 -59 -86 -75 -22 -15 -52 -41 -68
-57 -45 -47 -3 -38 48 10 23 22 62 56 87 76 25 20 65 55 90 78 25 23 90 80
145 126 55 47 102 88 103 92 2 4 10 8 17 8 7 0 15 4 17 9 4 12 96 81 107 81 5
0 11 6 14 13 2 6 7 9 11 5 8 -7 -79 -98 -93 -98 -5 0 -26 -16 -47 -36 -22 -20
-79 -69 -129 -109 -49 -40 -101 -83 -115 -95 -14 -12 -67 -57 -119 -99 -68
-54 -89 -77 -77 -79 27 -5 139 80 236 179 14 14 32 29 40 32 8 3 65 49 125
102 61 54 128 111 150 129 21 17 51 43 66 59 15 15 30 27 34 27 4 0 27 16 51
36 24 20 44 33 44 30 0 -16 -84 -111 -99 -111 -9 0 -17 -7 -19 -16 -1 -8 -12
-22 -23 -30 -12 -7 -29 -21 -39 -29 -10 -8 -28 -22 -40 -30 -12 -8 -47 -39
-78 -68 -32 -30 -82 -70 -112 -90 -68 -46 -210 -164 -210 -175 0 -4 -10 -12
-22 -17 -21 -8 -21 -9 -3 -9 26 -1 101 33 111 51 5 8 22 24 38 36 16 12 52 43
81 69 28 27 65 59 81 73 56 48 169 145 199 171 59 52 170 138 194 151 13 7 40
28 59 45 20 18 41 33 47 33 6 0 22 11 35 25 13 14 30 25 37 25 8 0 11 5 8 10
-3 6 4 10 17 10 16 0 19 3 10 9 -17 11 9 34 30 26 8 -3 23 3 33 15 11 12 13
20 6 20 -7 0 -9 5 -5 11 3 6 15 9 25 6 10 -3 22 -1 25 4 3 5 0 9 -7 9 -7 0 -2
11 11 26 17 17 31 23 46 20 14 -4 24 0 28 10 5 12 1 14 -17 9 -20 -7 77 90
172 170 74 63 161 148 161 159 0 5 -22 -12 -49 -38 -28 -28 -55 -46 -63 -43
-8 3 -30 -13 -53 -40 -25 -29 -41 -40 -46 -32 -5 8 -14 3 -30 -15 -12 -14 -29
-26 -36 -26 -7 0 -13 -4 -13 -9 0 -5 -14 -22 -31 -38 -17 -15 -39 -36 -48 -46
-9 -11 -47 -43 -86 -72 -38 -30 -85 -67 -103 -84 -18 -17 -35 -31 -37 -31 -8
0 -95 -61 -100 -70 -3 -6 -16 -15 -28 -21 -14 -8 -9 1 14 24 20 19 49 42 65
50 16 9 50 35 76 59 25 24 63 57 84 73 103 83 536 510 547 539 5 13 -4 8 -27
-15 -59 -58 -72 -69 -84 -69 -7 0 -12 -7 -12 -15 0 -8 -14 -22 -31 -30 -16 -9
-39 -24 -50 -33 -10 -9 -28 -25 -39 -34 -28 -25 -34 -5 -7 24 12 13 42 48 67
78 24 30 83 95 130 143 47 48 87 95 89 104 3 15 -40 -28 -112 -112 -15 -16
-27 -24 -27 -17 0 23 -20 12 -46 -28 -15 -22 -32 -40 -39 -40 -7 0 -43 -31
-81 -69 -38 -39 -70 -68 -72 -66 -3 2 25 37 60 77 36 40 90 108 121 150 31 42
61 80 67 83 5 3 10 12 10 18 0 7 -7 4 -14 -5 -7 -10 -18 -18 -23 -18 -15 0
-94 -76 -86 -83 3 -4 1 -7 -5 -7 -10 0 -45 -33 -77 -73 -40 -48 -127 -146
-162 -181 -172 -171 -355 -344 -435 -411 -12 -11 -51 -44 -86 -73 -35 -30 -65
-52 -68 -49 -2 2 10 16 28 29 33 25 84 69 103 88 6 6 28 27 50 48 223 210 472
461 533 537 22 28 59 70 81 95 23 25 41 48 41 52 0 4 6 13 13 20 8 7 26 31 40
53 14 22 36 52 47 68 12 15 17 27 11 27 -20 0 -119 -105 -233 -246 -18 -23
-55 -67 -82 -99 -40 -45 -47 -58 -35 -66 10 -6 7 -9 -13 -9 -17 0 -36 -11 -55
-32 -43 -50 -330 -336 -402 -401 -62 -56 -81 -67 -81 -47 0 6 4 10 10 10 23 0
394 369 533 531 69 79 132 151 155 177 38 43 97 123 96 130 -1 4 16 27 37 51
43 48 53 79 19 61 -10 -6 -23 -17 -28 -25 -4 -9 -19 -17 -31 -20 -27 -5 -67
-43 -56 -53 4 -4 14 3 22 16 9 12 20 22 26 22 5 0 -7 -17 -29 -37 -21 -21 -37
-39 -36 -40 7 -9 -4 -25 -52 -74 -29 -31 -61 -59 -70 -62 -9 -4 -16 -12 -16
-19 0 -9 3 -9 10 2 5 8 12 11 16 7 9 -9 -15 -37 -32 -37 -7 0 -15 -8 -19 -19
-3 -10 -28 -39 -55 -65 -28 -26 -50 -50 -50 -54 0 -26 -511 -534 -594 -591
-12 -8 -27 -23 -34 -33 -7 -10 -19 -18 -25 -18 -12 1 22 34 128 125 99 85 419
412 468 478 12 15 47 55 79 90 32 34 58 67 58 73 0 5 8 19 18 30 29 32 162
204 162 209 0 3 15 26 34 52 18 27 45 69 59 95 58 105 181 278 198 278 14 0
10 -13 -11 -40 -11 -14 -20 -28 -20 -32 0 -3 -12 -25 -27 -48 -16 -23 -28 -46
-28 -50 0 -5 -10 -20 -22 -33 -22 -26 -47 -67 -40 -67 8 0 87 111 87 121 0 6
5 7 10 4 6 -3 10 -2 10 3 0 4 9 18 20 30 12 12 18 22 15 22 -3 0 4 10 15 23
11 12 28 31 37 42 20 22 30 126 16 163 -8 20 -12 15 -47 -50 -22 -40 -47 -82
-56 -93 -10 -11 -30 -44 -45 -73 -16 -30 -34 -56 -41 -59 -7 -2 -18 -18 -24
-34 -7 -16 -19 -29 -26 -29 -7 0 -21 -12 -31 -27 -10 -16 -34 -48 -54 -73 -20
-25 -48 -65 -62 -90 -15 -25 -42 -63 -62 -85 -19 -22 -35 -43 -35 -46 0 -3 -9
-17 -21 -30 -11 -13 -42 -50 -67 -81 -26 -32 -49 -52 -51 -46 -2 7 1 14 8 16
6 2 11 10 11 18 0 8 4 14 9 14 4 0 28 28 52 63 23 34 46 64 50 67 4 3 29 37
56 76 26 39 71 104 99 145 28 41 68 106 88 144 59 110 159 254 175 252 8 -1
20 9 27 21 6 13 17 29 23 35 13 13 14 86 2 106 -7 10 -13 4 -27 -25 -41 -89
-190 -340 -214 -364 -15 -14 -44 -51 -66 -84 -21 -32 -49 -72 -61 -90 -12 -17
-22 -37 -22 -43 -1 -7 -5 -13 -10 -13 -5 0 -20 -19 -34 -42 -14 -24 -45 -69
-68 -100 -24 -31 -63 -83 -87 -116 -42 -58 -82 -102 -82 -88 0 4 5 12 10 19 6
7 33 44 60 82 28 39 57 79 65 90 8 10 15 25 15 32 0 7 4 13 9 13 5 0 26 27 46
60 20 33 42 66 49 73 7 7 19 24 27 39 8 14 28 46 45 69 40 57 146 260 139 267
-3 3 -5 0 -5 -6 0 -5 -16 -29 -36 -51 -21 -22 -42 -49 -48 -59 -6 -10 -20 -33
-31 -51 -19 -31 -162 -248 -185 -281 -6 -8 -32 -46 -58 -85 -70 -103 -125
-175 -131 -170 -2 3 3 13 11 22 9 10 17 23 19 28 2 6 41 65 87 132 45 67 82
127 82 132 0 5 3 11 8 13 10 5 103 148 96 148 -4 0 1 9 12 21 38 42 140 236
130 247 -4 3 -13 -3 -20 -14 -8 -10 -26 -32 -40 -47 -14 -15 -26 -33 -26 -39
0 -6 -8 -7 -17 -3 -14 5 -15 3 -6 -6 14 -14 -19 -99 -43 -112 -8 -5 -19 -19
-23 -31 -5 -12 -40 -67 -77 -122 -74 -108 -75 -109 -132 -196 -20 -32 -40 -58
-44 -58 -7 0 17 43 109 191 29 48 53 92 53 98 0 6 3 11 8 11 4 0 14 15 21 32
13 29 46 86 90 158 15 23 111 228 111 236 0 2 -15 -12 -34 -31 -19 -19 -55
-76 -81 -127 -26 -51 -52 -100 -59 -108 -7 -8 -44 -69 -81 -135 -68 -119 -95
-159 -102 -151 -4 3 32 71 158 298 27 49 49 91 49 96 0 4 10 23 23 42 23 34
77 161 77 180 0 18 -25 -1 -44 -33 -10 -17 -53 -99 -96 -182 -135 -264 -179
-342 -231 -408 -12 -15 -23 -26 -26 -24 -2 3 6 15 17 28 24 27 132 229 123
229 -3 0 1 8 9 18 18 20 200 391 216 440 l11 32 -23 -17 c-21 -16 -43 -55
-106 -193 -21 -47 -103 -204 -119 -230 -5 -8 -12 -22 -15 -30 -4 -8 -15 -28
-25 -45 -11 -16 -30 -50 -42 -74 -13 -25 -24 -40 -26 -34 -2 6 10 35 28 64 17
30 32 59 33 64 1 6 53 112 114 236 62 124 112 230 112 235 0 5 44 99 99 209
54 110 102 212 105 228 4 15 11 27 17 27 6 0 7 -5 3 -12 -4 -7 -9 -23 -10 -37
-2 -13 -8 -29 -13 -34 -6 -6 -11 -21 -11 -33 0 -23 -54 -158 -106 -268 -26
-55 -13 -51 16 4 16 30 36 69 45 87 20 39 41 57 55 48 14 -9 13 -23 -2 -21 -7
0 -13 -3 -13 -9 0 -5 3 -9 8 -7 14 4 7 -23 -16 -64 -13 -22 -26 -51 -30 -65
l-6 -24 19 25 c11 14 25 37 31 53 6 15 18 27 26 27 11 0 11 -4 3 -20 -6 -11
-8 -20 -6 -20 6 0 36 55 36 66 0 3 -7 0 -17 -7 -14 -12 -16 -12 -11 1 2 8 15
17 29 20 16 4 20 8 11 14 -17 10 -15 26 3 26 8 0 15 9 15 20 0 11 3 20 8 20 4
0 12 17 19 38 11 34 9 43 -24 114 -25 54 -40 75 -50 71 -11 -4 -13 0 -8 19 4
15 1 31 -7 39 -8 8 -20 29 -27 47 -16 38 -27 41 -34 10 -11 -49 -57 -187 -87
-257 -17 -41 -29 -76 -27 -78 2 -2 23 35 46 81 26 51 50 86 62 89 17 5 17 3 5
-15 -8 -11 -12 -27 -9 -34 3 -8 0 -14 -6 -14 -6 0 -8 -7 -4 -17 4 -10 2 -14
-5 -9 -6 3 -14 1 -18 -5 -5 -8 -3 -9 6 -4 9 6 10 2 5 -16 -4 -13 -12 -27 -17
-30 -5 -3 -12 -21 -14 -39 -7 -41 -74 -170 -89 -170 -6 0 -24 -28 -39 -63 -49
-106 -199 -410 -219 -445 -34 -57 -30 -26 6 50 19 40 75 159 124 263 50 105
98 213 108 240 10 28 21 55 25 60 4 6 10 19 13 30 l7 20 -15 -20 c-8 -11 -18
-24 -22 -30 -31 -37 -55 -79 -73 -126 -29 -74 -48 -117 -72 -164 -47 -92 -87
-173 -107 -217 -12 -27 -26 -48 -31 -48 -5 0 2 26 16 58 14 31 28 64 31 72 3
8 24 53 46 100 91 194 115 247 132 295 10 28 21 55 25 60 15 22 20 47 9 43
-12 -4 -51 -65 -70 -108 -78 -182 -139 -312 -154 -330 -8 -8 -13 -17 -13 -20
1 -12 -38 -90 -44 -90 -11 0 -11 1 12 48 11 22 20 46 20 52 0 5 23 58 50 116
28 58 50 108 50 111 0 3 20 47 45 97 25 51 45 98 45 105 0 16 107 257 138 309
17 31 27 40 33 31 4 -8 5 -16 1 -19 -6 -5 -11 -24 -14 -57 -1 -7 -6 -13 -11
-13 -6 0 -8 -3 -4 -6 3 -4 0 -19 -9 -35 -8 -16 -14 -30 -14 -31 2 -6 -12 -44
-31 -87 -11 -24 -18 -46 -15 -49 3 -2 10 7 16 22 12 33 83 175 114 229 40 70
45 154 9 140 -11 -5 -14 -1 -9 13 3 11 -3 29 -15 44 -11 14 -18 21 -17 15 1
-5 -3 -19 -9 -30 -6 -11 -14 -40 -18 -65 -4 -24 -11 -51 -15 -60 -5 -8 -20
-46 -35 -85 -15 -38 -33 -83 -40 -100 -7 -16 -20 -47 -29 -67 -8 -21 -19 -38
-24 -38 -10 0 -52 -72 -52 -89 0 -14 -105 -254 -125 -285 -7 -11 -23 -46 -36
-76 -12 -30 -31 -67 -41 -82 -11 -16 -16 -32 -13 -38 3 -5 1 -10 -4 -10 -6 0
-11 -12 -11 -26 0 -15 -13 -49 -30 -76 -17 -26 -30 -53 -30 -59 0 -6 -11 -25
-24 -42 -12 -18 -33 -52 -45 -77 -12 -25 -44 -80 -72 -123 -27 -43 -49 -80
-49 -83 0 -13 -248 -357 -262 -362 -4 -2 -8 -11 -8 -20 0 -13 5 -11 23 8 30
33 217 287 217 295 0 3 33 56 74 118 40 62 95 153 121 202 27 50 61 109 77
133 15 24 28 48 28 53 0 11 25 39 35 39 3 0 -1 -13 -10 -30 -8 -16 -15 -34
-15 -39 0 -34 -121 -259 -227 -420 -41 -62 -72 -115 -70 -117 8 -9 196 288
252 396 15 30 31 57 35 60 3 3 15 20 25 38 11 17 23 32 27 32 5 0 4 -8 -2 -17
-5 -10 -28 -56 -50 -103 -42 -91 -52 -109 -117 -212 -24 -37 -43 -74 -43 -82
0 -7 -9 -16 -19 -19 -13 -3 -19 -13 -18 -31 1 -14 3 -26 4 -26 6 0 82 116 127
194 136 235 157 226 32 -14 -48 -92 -56 -104 -209 -312 -33 -44 -57 -82 -54
-84 6 -7 143 176 222 296 113 174 118 181 123 175 3 -3 0 -11 -6 -17 -7 -7
-12 -20 -12 -31 0 -10 -11 -33 -24 -50 -13 -18 -33 -50 -44 -72 -30 -60 -137
-214 -201 -291 -14 -17 -44 -52 -65 -78 -22 -26 -54 -64 -73 -84 -27 -31 -42
-62 -30 -62 2 0 19 21 37 47 19 25 58 73 87 106 29 33 74 90 100 126 26 36 50
68 53 71 4 3 32 41 63 85 31 44 60 85 65 90 4 6 11 18 15 28 3 9 11 17 17 17
38 0 -132 -264 -277 -430 -18 -21 -33 -40 -33 -44 0 -29 54 36 243 291 45 61
88 105 95 98 3 -2 -6 -14 -20 -25 -14 -11 -29 -31 -32 -45 -4 -14 -11 -25 -16
-25 -6 0 -10 -5 -10 -10 0 -6 -11 -23 -25 -38 -14 -15 -25 -31 -25 -37 0 -5
-15 -27 -33 -47 -17 -21 -45 -54 -62 -74 -42 -50 -123 -134 -130 -134 -3 0 -1
9 5 20 20 37 -5 20 -83 -56 -42 -41 -77 -72 -77 -68 0 4 7 16 17 26 13 15 14
18 2 18 -8 0 -20 -5 -26 -11 -6 -6 -16 -10 -23 -7 -6 2 1 16 17 33 16 17 46
53 68 80 22 28 48 59 57 69 17 18 23 36 14 36 -2 0 -17 -18 -33 -39 -52 -71
-165 -190 -200 -211 -18 -10 -33 -17 -33 -15 0 3 30 40 68 82 86 100 253 309
277 348 l19 30 -32 -30 c-18 -16 -62 -69 -98 -117 -36 -48 -68 -88 -72 -90 -4
-2 -19 -21 -34 -43 -45 -66 -173 -198 -186 -194 -10 3 -8 12 8 32 24 30 17 37
-9 9 -9 -10 -38 -38 -65 -63 l-49 -44 28 45 c16 25 38 55 49 67 11 13 15 23 9
23 -6 0 -18 -11 -26 -23 -23 -36 -124 -118 -106 -87 8 13 20 30 27 38 21 23
13 24 -17 1 -17 -13 -36 -19 -46 -15 -10 3 -29 -3 -46 -15 -25 -18 -29 -18
-29 -4 0 14 -4 13 -31 -5 -16 -12 -33 -19 -36 -16 -4 3 -1 6 5 6 7 0 12 7 12
15 0 21 -12 19 -38 -5 -29 -28 -28 -13 3 33 28 40 24 48 -9 18 -21 -19 -96
-54 -96 -45 0 3 8 17 17 31 l18 27 -32 -23 c-23 -17 -40 -22 -60 -18 -34 7
-64 -8 -93 -46 -17 -22 -25 -25 -36 -17 -7 7 -18 9 -23 6 -5 -4 -13 -1 -16 5
-4 5 -13 8 -20 5 -7 -2 -22 2 -34 11 -16 10 -33 13 -62 8 -25 -4 -52 -2 -70 6
-25 10 -32 10 -39 -1 -4 -7 -13 -9 -19 -6 -14 9 -68 18 -99 17 -13 0 -34 6
-47 15 -17 11 -25 12 -25 5 0 -9 -8 -8 -27 3 -16 8 -53 27 -83 41 -30 14 -62
30 -70 35 -8 5 -28 12 -44 15 -16 3 -44 22 -63 42 -23 23 -38 32 -42 24 -10
-15 -134 117 -197 209 -93 138 -98 149 -85 174 11 19 8 30 -13 71 -26 49 -33
89 -17 99 5 3 1 29 -10 56 -10 28 -19 60 -19 73 l1 22 19 -24 c25 -30 25 -15
0 51 -24 63 -25 88 -5 88 13 0 15 9 9 53 -6 46 -6 51 9 39 24 -20 27 -2 11 67
-8 35 -13 65 -11 67 2 2 16 -21 31 -51 29 -61 41 -70 31 -26 -3 16 -8 46 -10
68 -2 21 -7 49 -10 63 -4 14 -7 31 -7 38 -1 6 -4 12 -8 12 -4 0 -13 19 -20 43
-8 23 -18 48 -23 54 -5 7 -7 19 -4 27 3 8 -1 17 -9 20 -8 3 -14 19 -14 36 0
17 -7 44 -15 60 -15 29 -27 87 -27 128 0 12 -4 22 -9 22 -12 0 -12 37 0 45 9
5 22 -27 34 -82 3 -12 0 -24 -7 -27 -8 -3 -7 -5 1 -5 13 -1 48 -69 44 -85 -3
-14 69 -233 84 -252 11 -16 12 -13 8 21 -2 21 -9 45 -15 52 -6 7 -7 13 -4 13
4 0 1 10 -5 23 -7 12 -16 38 -20 57 -4 19 -19 78 -33 130 -30 108 -56 231 -56
263 0 22 1 22 19 -2 10 -13 16 -31 14 -40 -2 -9 1 -30 8 -46 6 -17 13 -37 14
-45 1 -8 8 -35 14 -60 7 -25 16 -61 20 -80 10 -44 59 -203 78 -250 l14 -35 -6
50 c-4 28 -15 79 -27 115 -11 36 -21 74 -23 85 -1 11 -16 76 -33 145 -39 164
-47 210 -33 210 6 0 11 -9 11 -20 0 -12 7 -31 15 -43 8 -12 15 -39 17 -60 1
-20 5 -37 8 -37 4 0 14 -35 23 -77 17 -76 31 -112 41 -103 2 3 -9 55 -25 115
-39 148 -48 204 -37 211 14 9 20 -1 24 -37 2 -18 8 -37 12 -43 5 -6 15 -39 22
-73 7 -35 16 -63 20 -63 10 0 8 19 -20 155 -13 61 -24 127 -25 147 0 20 -4 40
-8 44 -4 4 2 18 14 30 15 16 20 31 17 49 -4 20 -2 23 8 15 11 -10 20 -46 30
-115 1 -11 9 -49 18 -85 8 -36 17 -78 19 -95 18 -116 41 -212 53 -225 12 -12
14 -12 14 0 0 17 -24 141 -40 210 -5 25 -17 88 -26 140 -31 189 -33 230 -13
230 6 0 8 -9 4 -21 -5 -13 -2 -25 6 -30 8 -5 12 -23 10 -47 -1 -22 2 -43 8
-46 6 -4 8 -20 4 -38 -5 -24 -3 -30 8 -26 15 5 14 64 -1 83 -5 6 -5 17 0 25 6
9 11 -2 16 -36 4 -27 10 -51 15 -54 4 -3 10 -21 12 -40 2 -19 8 -44 15 -55 15
-26 15 -18 -2 52 -8 32 -17 76 -21 97 -3 21 -8 48 -10 60 -3 12 -7 37 -9 56
-3 19 -5 35 -6 35 -8 0 -9 104 -1 110 7 4 11 -5 11 -22 0 -15 9 -64 19 -108
10 -44 22 -104 26 -132 4 -29 11 -55 16 -59 5 -3 9 -16 9 -30 0 -13 5 -24 10
-24 6 0 8 10 5 23 -19 86 -33 154 -34 167 0 8 -3 26 -5 40 -16 84 -23 175 -16
194 8 19 9 19 9 -7 1 -15 8 -60 17 -100 9 -40 17 -81 18 -91 1 -21 26 -36 26
-16 0 7 -7 40 -16 74 -9 33 -13 75 -11 93 3 18 1 35 -4 38 -5 4 -9 21 -9 38 1
29 2 30 12 12 10 -16 14 -37 20 -92 1 -7 5 -13 10 -13 7 0 13 70 9 113 -1 9 3
17 8 17 6 0 11 -15 11 -32 0 -18 4 -49 9 -68 5 -19 14 -69 21 -110 15 -95 32
-137 24 -60 -3 30 -10 71 -15 91 -5 19 -11 80 -14 135 -3 54 -8 107 -11 117
-9 31 -23 18 -27 -25 l-3 -43 -8 32 c-14 54 -32 59 -30 8 1 -33 -2 -42 -12
-38 -8 3 -14 14 -14 24 0 10 -4 19 -9 19 -5 0 -7 -12 -5 -27 2 -16 -1 -35 -6
-43 -14 -21 -24 -4 -39 67 -17 73 -23 63 -12 -23 9 -78 6 -100 -13 -81 -7 6
-16 21 -20 32 -14 34 -17 3 -8 -80 5 -44 8 -82 5 -84 -2 -3 -11 2 -19 11 -25
25 -53 180 -54 296 0 57 -3 72 -15 72 -8 0 -15 -6 -15 -14z m150 -260 c0 -3
-4 -8 -10 -11 -5 -3 -10 -1 -10 4 0 6 5 11 10 11 6 0 10 -2 10 -4z m-386 -71
c-11 -27 -22 -16 -19 18 4 44 5 45 15 19 5 -12 7 -29 4 -37z m-70 6 c3 -5 -1
-12 -10 -15 -20 -8 -29 -1 -19 13 8 13 22 14 29 2z m16 -41 c0 -5 -2 -10 -4
-10 -3 0 -8 5 -11 10 -3 6 -1 10 4 10 6 0 11 -4 11 -10z m410 -20 c0 -5 -4
-10 -10 -10 -5 0 -10 5 -10 10 0 6 5 10 10 10 6 0 10 -4 10 -10z m-495 -49 c3
-5 1 -12 -5 -16 -5 -3 -10 1 -10 9 0 18 6 21 15 7z m5 -41 c0 -5 -4 -10 -10
-10 -5 0 -10 5 -10 10 0 6 5 10 10 10 6 0 10 -4 10 -10z m4 -41 c-3 -5 -10 -7
-15 -3 -5 3 -7 10 -3 15 3 5 10 7 15 3 5 -3 7 -10 3 -15z m3143 -51 c-3 -8 -6
-5 -6 6 -1 11 2 17 5 13 3 -3 4 -12 1 -19z m-3138 -15 c2 -37 7 -65 14 -83 5
-15 20 -93 18 -98 -1 -1 5 -17 13 -36 7 -18 17 -57 21 -87 3 -30 9 -62 11 -71
8 -26 -23 -23 -36 3 -15 28 -23 18 -11 -14 13 -33 24 -107 16 -107 -13 0 -37
31 -55 72 -26 59 -67 338 -50 338 4 0 13 -26 20 -57 7 -32 16 -63 21 -69 6 -7
9 -16 7 -20 -3 -12 23 -103 31 -109 4 -2 -1 35 -11 83 -10 48 -19 128 -21 177
-1 50 -6 93 -12 97 -6 5 -3 8 6 8 10 0 17 -10 18 -27z m-59 7 c0 -5 -4 -10
-10 -10 -5 0 -10 5 -10 10 0 6 5 10 10 10 6 0 10 -4 10 -10z m413 -81 c-8 -30
-27 -17 -29 20 -2 30 -1 31 16 16 11 -10 16 -24 13 -36z m-63 0 c0 -11 -4 -18
-10 -14 -5 3 -7 12 -3 20 7 21 13 19 13 -6z m-410 -37 c0 -5 -7 -17 -15 -28
-14 -18 -14 -18 -15 9 0 17 5 27 15 27 8 0 15 -4 15 -8z m3340 -10 c0 -13 -12
-22 -22 -16 -10 6 -1 24 13 24 5 0 9 -4 9 -8z m-3320 -22 c0 -5 -4 -10 -10
-10 -5 0 -10 5 -10 10 0 6 5 10 10 10 6 0 10 -4 10 -10z m-117 -30 c3 -11 1
-23 -4 -26 -5 -3 -9 6 -9 20 0 31 6 34 13 6z m132 -50 c1 -8 5 -22 8 -30 26
-69 56 -190 64 -255 3 -22 11 -50 19 -62 8 -12 14 -30 14 -40 0 -15 -4 -14
-20 7 -11 14 -27 39 -35 57 -9 18 -20 35 -24 38 -8 4 -5 -9 17 -75 11 -32 12
-59 4 -64 -20 -12 -54 56 -66 134 -3 19 -10 62 -16 95 -20 118 -5 142 20 33 7
-32 17 -58 22 -58 10 0 10 -2 -2 40 -15 48 -20 83 -26 165 -3 57 -2 66 8 50 6
-11 12 -27 13 -35z m-125 -20 c0 -5 -2 -10 -4 -10 -3 0 -8 5 -11 10 -3 6 -1
10 4 10 6 0 11 -4 11 -10z m10 -40 c0 -5 -4 -10 -9 -10 -6 0 -13 5 -16 10 -3
6 1 10 9 10 9 0 16 -4 16 -10z m381 -60 c5 0 9 -11 9 -24 0 -14 5 -37 12 -53
6 -15 10 -34 9 -41 -1 -8 2 -19 7 -25 12 -16 22 -53 28 -102 3 -22 9 -42 13
-45 14 -9 20 -39 9 -46 -7 -5 -7 -9 1 -13 6 -4 13 -27 15 -51 l5 -45 -14 30
c-8 17 -14 38 -15 47 0 9 -4 20 -10 23 -5 3 -10 19 -10 36 0 16 -4 29 -10 29
-5 0 -10 9 -10 21 0 11 -4 28 -9 38 -6 10 -12 31 -15 47 -2 16 -5 30 -5 32 -1
1 -2 5 -2 10 -1 4 -8 27 -15 52 -8 25 -13 61 -13 80 1 19 3 27 6 18 2 -10 9
-18 14 -18z m3049 -10 c0 -5 -5 -10 -11 -10 -5 0 -7 5 -4 10 3 6 8 10 11 10 2
0 4 -4 4 -10z m-3510 -20 c8 -16 8 -20 -4 -20 -9 0 -14 8 -13 20 1 11 2 20 4
20 1 0 7 -9 13 -20z m132 -65 c31 -82 78 -241 78 -265 0 -15 5 -31 12 -38 9
-9 9 -15 1 -23 -7 -7 -12 -3 -17 14 -3 14 -13 27 -21 31 -20 7 -20 -33 0 -60
8 -10 15 -29 15 -42 0 -30 -31 -26 -45 6 -10 23 -31 32 -22 8 3 -7 15 -45 27
-84 11 -39 25 -74 30 -77 6 -4 7 -11 4 -17 -4 -7 -20 5 -40 28 l-33 38 14 -47
c7 -25 18 -55 24 -65 11 -20 6 -32 -14 -32 -23 0 -84 167 -111 300 -16 78 -16
82 2 95 33 25 43 17 61 -45 10 -33 21 -60 26 -60 10 0 9 5 -13 110 -21 99 -25
150 -12 150 7 0 9 -8 15 -64 1 -13 8 -29 16 -37 12 -11 13 -9 7 12 -23 83 -42
231 -27 213 4 -5 14 -27 23 -49z m-132 25 c0 -5 -4 -10 -10 -10 -5 0 -10 5
-10 10 0 6 5 10 10 10 6 0 10 -4 10 -10z m379 -67 c7 -27 19 -58 27 -70 9 -14
10 -24 3 -28 -7 -5 -6 -12 2 -22 15 -17 42 -96 59 -173 7 -30 17 -60 22 -67 5
-7 7 -17 3 -24 -11 -17 -21 3 -56 110 -16 52 -33 99 -37 105 -3 6 -7 17 -8 26
0 8 -9 41 -18 73 -10 32 -15 65 -12 73 3 7 1 14 -4 14 -6 0 -10 7 -10 15 0 33
18 12 29 -32z m-44 -32 c3 -5 1 -12 -5 -16 -5 -3 -10 1 -10 9 0 18 6 21 15 7z
m-325 -11 c0 -5 -4 -10 -10 -10 -5 0 -10 5 -10 10 0 6 5 10 10 10 6 0 10 -4
10 -10z m342 -60 c-2 -7 1 -16 7 -19 5 -4 11 -26 14 -51 2 -24 9 -46 15 -48 7
-2 12 -14 12 -27 0 -13 5 -27 11 -30 6 -4 8 -13 5 -21 -3 -8 -2 -14 3 -14 5 0
11 -15 13 -32 3 -18 7 -37 9 -43 2 -5 0 -11 -5 -13 -6 -2 -15 14 -21 35 -7 21
-21 58 -33 83 -42 92 -65 206 -39 197 6 -2 11 -10 9 -17z m-332 0 c0 -5 -5
-10 -11 -10 -5 0 -7 5 -4 10 3 6 8 10 11 10 2 0 4 -4 4 -10z m40 -30 c0 -5 -4
-10 -10 -10 -5 0 -10 5 -10 10 0 6 5 10 10 10 6 0 10 -4 10 -10z m262 -56 c0
-13 1 -30 2 -36 1 -7 9 -21 19 -30 29 -30 18 -65 -16 -52 -9 3 -13 12 -10 21
3 8 1 24 -5 36 -6 12 -13 39 -15 59 -4 29 -3 36 9 31 8 -3 15 -16 16 -29z
m-59 -14 c3 -11 2 -20 -3 -20 -4 0 -10 9 -13 20 -3 11 -2 20 3 20 4 0 10 -9
13 -20z m22 -73 c4 -17 16 -50 25 -72 26 -57 33 -85 21 -85 -12 0 -24 19 -28
41 -1 8 -9 29 -18 45 -8 16 -15 44 -15 62 0 17 -5 32 -11 32 -5 0 -7 5 -4 10
10 16 23 2 30 -33z m-355 18 c0 -8 -2 -15 -4 -15 -2 0 -6 7 -10 15 -3 8 -1 15
4 15 6 0 10 -7 10 -15z m41 2 c-1 -12 -15 -9 -19 4 -3 6 1 10 8 8 6 -3 11 -8
11 -12z m-116 -47 c3 -5 1 -10 -4 -10 -6 0 -11 5 -11 10 0 6 2 10 4 10 3 0 8
-4 11 -10z m150 -32 c8 -18 31 -76 51 -128 21 -52 45 -106 55 -120 9 -14 20
-42 24 -63 4 -20 11 -40 16 -43 5 -3 9 -17 9 -31 l0 -26 -20 24 c-56 69 -78
102 -86 135 -4 16 -10 34 -14 39 -16 20 -61 161 -65 203 -6 50 9 55 30 10z
m237 0 c-15 -15 -24 -6 -16 16 5 12 10 14 17 7 8 -8 8 -14 -1 -23z m137 -29
c8 -28 20 -63 27 -77 7 -14 11 -28 9 -31 -8 -7 -45 41 -39 50 3 5 -2 16 -10
25 -9 9 -13 20 -10 26 4 6 1 13 -5 17 -12 8 -5 41 8 41 4 0 13 -23 20 -51z
m160 9 c12 -15 11 -18 -3 -18 -10 0 -16 8 -16 22 0 12 1 19 3 17 1 -2 9 -12
16 -21z m-257 -100 c-14 -14 -43 52 -35 82 5 19 9 15 26 -25 14 -33 17 -49 9
-57z m-72 66 c0 -8 -4 -12 -10 -9 -5 3 -10 10 -10 16 0 5 5 9 10 9 6 0 10 -7
10 -16z m-245 -4 c3 -5 -1 -10 -9 -10 -9 0 -16 5 -16 10 0 6 4 10 9 10 6 0 13
-4 16 -10z m-75 -20 c0 -5 -7 -10 -15 -10 -8 0 -15 5 -15 10 0 6 7 10 15 10 8
0 15 -4 15 -10z m620 -12 c0 -19 -2 -20 -10 -8 -13 19 -13 30 0 30 6 0 10 -10
10 -22z m-280 2 c0 -5 -4 -10 -10 -10 -5 0 -10 5 -10 10 0 6 5 10 10 10 6 0
10 -4 10 -10z m238 -30 c13 -37 -1 -49 -17 -14 -13 30 -14 44 -2 44 5 0 14
-13 19 -30z m-112 11 c-3 -4 0 -22 6 -39 10 -25 10 -34 -1 -44 -7 -7 -11 -8
-10 -3 2 6 -2 20 -9 33 -9 16 -10 27 -2 42 6 11 13 20 16 20 3 0 3 -4 0 -9z
m-456 -11 c0 -5 -4 -10 -10 -10 -5 0 -10 5 -10 10 0 6 5 10 10 10 6 0 10 -4
10 -10z m340 -16 c0 -16 -16 -19 -25 -4 -8 13 4 32 16 25 5 -4 9 -13 9 -21z
m-240 -36 c8 -24 19 -50 26 -58 6 -8 15 -26 19 -38 4 -13 24 -58 46 -100 21
-42 39 -82 39 -89 0 -7 6 -13 14 -13 8 0 13 -9 12 -24 -1 -20 -4 -22 -27 -14
-20 7 -35 32 -76 126 -68 156 -83 198 -83 227 0 39 15 30 30 -17z m305 19 c7
-7 16 -32 20 -54 3 -23 12 -44 19 -46 8 -3 14 -17 14 -31 0 -21 -3 -24 -14
-15 -8 6 -14 17 -14 24 0 7 -11 33 -25 56 -34 59 -34 99 0 66z m-385 -12 c0
-8 -4 -15 -10 -15 -5 0 -10 7 -10 15 0 8 5 15 10 15 6 0 10 -7 10 -15z m530
-55 c3 -3 6 -16 7 -30 2 -18 -5 -10 -22 25 -14 28 -25 57 -25 65 0 8 8 -1 17
-20 10 -19 20 -37 23 -40z m-190 50 c0 -5 -4 -10 -10 -10 -5 0 -10 5 -10 10 0
6 5 10 10 10 6 0 10 -4 10 -10z m0 -167 c0 -7 5 -13 10 -13 6 0 10 -9 10 -20
0 -11 -4 -20 -10 -20 -5 0 -10 6 -10 14 0 8 -6 21 -14 28 -7 8 -17 29 -21 47
-4 18 -13 44 -21 59 -8 15 -14 34 -13 42 0 18 69 -119 69 -137z m25 95 c4 -18
12 -36 17 -39 4 -3 10 -20 11 -37 1 -18 5 -32 10 -32 4 0 7 -5 7 -11 0 -23
-29 13 -36 44 -3 18 -14 43 -24 57 -10 14 -21 36 -25 48 -6 21 -5 23 13 13 11
-6 24 -25 27 -43z m-334 0 c7 -14 6 -18 -4 -18 -15 0 -39 44 -30 54 7 6 14 -2
34 -36z m439 12 c0 -10 5 -22 10 -25 14 -9 13 -35 -2 -35 -6 0 -9 3 -5 6 3 4
0 19 -8 35 -17 32 -19 53 -5 44 6 -3 10 -15 10 -25z m-510 -40 c0 -5 -4 -10
-10 -10 -5 0 -10 5 -10 10 0 6 5 10 10 10 6 0 10 -4 10 -10z m150 -126 c33
-69 70 -135 80 -147 11 -11 20 -26 20 -32 0 -7 9 -20 20 -30 11 -10 20 -26 20
-37 0 -10 4 -18 9 -18 5 0 11 -9 14 -20 3 -11 4 -20 2 -20 -1 0 -24 20 -51 44
-49 45 -58 59 -127 202 -77 158 -86 184 -63 184 9 0 38 -48 76 -126z m360 37
c0 -9 5 -22 11 -28 7 -7 7 -13 1 -17 -6 -3 -13 7 -17 24 -4 16 -11 30 -16 30
-5 0 -9 7 -9 16 0 14 3 14 15 4 8 -7 15 -20 15 -29z m-459 -18 c12 -21 34 -60
49 -88 47 -88 190 -313 229 -361 18 -22 31 -54 23 -54 -5 0 -35 29 -68 64 -77
83 -84 92 -84 111 0 8 -4 15 -8 15 -22 0 -172 288 -172 330 0 28 5 25 31 -17z
m289 11 c0 -8 -4 -12 -10 -9 -5 3 -10 10 -10 16 0 5 5 9 10 9 6 0 10 -7 10
-16z m133 -31 c4 -10 13 -33 21 -50 8 -18 12 -33 7 -33 -9 0 -51 73 -51 89 0
17 17 13 23 -6z m-53 -23 c0 -11 6 -23 14 -26 8 -3 12 -12 9 -20 -3 -8 0 -14
6 -14 6 0 11 -7 11 -15 0 -35 -39 6 -44 47 -1 3 -4 10 -8 14 -11 11 -10 34 2
34 6 0 10 -9 10 -20z m-60 -5 c0 -8 5 -15 10 -15 6 0 10 -6 10 -14 0 -8 7 -22
16 -31 12 -11 14 -19 6 -27 -9 -9 -21 9 -60 95 -2 4 1 7 7 7 6 0 11 -7 11 -15z
m-42 -23 c6 -18 -15 -14 -22 4 -4 10 -1 14 6 12 6 -2 14 -10 16 -16z m362 -6
c0 -3 -4 -8 -10 -11 -5 -3 -10 -1 -10 4 0 6 5 11 10 11 6 0 10 -2 10 -4z
m-664 -34 c6 -12 17 -30 25 -39 8 -10 19 -27 25 -38 35 -65 51 -92 67 -110 10
-11 30 -40 44 -65 14 -25 29 -47 32 -50 3 -3 19 -24 35 -48 16 -24 34 -46 40
-50 6 -4 24 -25 40 -47 16 -22 43 -55 59 -72 17 -18 28 -33 24 -33 -3 0 5 -12
18 -26 14 -15 25 -31 25 -35 0 -16 -158 135 -205 196 -55 70 -134 190 -161
245 -15 30 -33 62 -40 70 -23 27 -66 132 -52 128 7 -3 18 -14 24 -26z m314 -2
c0 -5 -2 -10 -4 -10 -3 0 -8 5 -11 10 -3 6 -1 10 4 10 6 0 11 -4 11 -10z
m2864 -34 c-9 -15 -19 -25 -21 -22 -3 2 3 16 13 30 9 15 19 25 21 22 3 -2 -3
-16 -13 -30z m-2664 -6 c12 -23 12 -24 -3 -11 -10 7 -17 20 -17 29 0 18 3 16
20 -18z m-180 10 c0 -5 -4 -10 -10 -10 -5 0 -10 5 -10 10 0 6 5 10 10 10 6 0
10 -4 10 -10z m88 -46 c-10 -10 -28 6 -28 24 0 15 1 15 17 -1 9 -9 14 -19 11
-23z m-58 -21 c0 -7 4 -13 9 -13 5 0 11 -10 15 -23 3 -12 14 -32 26 -44 11
-12 20 -27 20 -32 0 -5 10 -22 23 -38 12 -15 28 -41 35 -58 l12 -30 -24 29
c-14 17 -23 33 -20 38 3 4 2 8 -3 8 -4 0 -24 25 -43 55 -19 31 -45 71 -57 91
-27 41 -33 83 -8 50 8 -11 15 -26 15 -33z m120 16 c0 -6 -4 -7 -10 -4 -5 3
-10 11 -10 16 0 6 5 7 10 4 6 -3 10 -11 10 -16z m-152 -47 c2 -7 -2 -10 -12
-6 -9 3 -16 11 -16 16 0 13 23 5 28 -10z m172 8 c0 -5 -2 -10 -4 -10 -3 0 -8
5 -11 10 -3 6 -1 10 4 10 6 0 11 -4 11 -10z m-47 -20 c3 -11 2 -20 -3 -20 -4
0 -10 9 -13 20 -3 11 -2 20 3 20 4 0 10 -9 13 -20z m67 -20 c0 -5 -2 -10 -4
-10 -3 0 -8 5 -11 10 -3 6 -1 10 4 10 6 0 11 -4 11 -10z m2624 -25 c-4 -8 -11
-15 -16 -15 -6 0 -5 6 2 15 7 8 14 15 16 15 2 0 1 -7 -2 -15z m-2651 -27 c5
-19 5 -19 -14 -2 -22 20 -25 36 -5 28 8 -3 16 -14 19 -26z m-138 12 c-3 -5 -1
-10 4 -10 6 0 11 -5 11 -11 0 -8 -5 -8 -15 1 -17 14 -20 30 -4 30 5 0 7 -4 4
-10z m191 1 c-4 -5 -1 -12 4 -14 6 -3 5 -4 -2 -3 -15 3 -23 26 -8 26 6 0 9 -4
6 -9z m2574 -15 c0 -2 -8 -10 -17 -17 -16 -13 -17 -12 -4 4 13 16 21 21 21 13z
m-2730 -36 c0 -5 -2 -10 -4 -10 -3 0 -8 5 -11 10 -3 6 -1 10 4 10 6 0 11 -4
11 -10z m-50 -10 c0 -5 -4 -10 -10 -10 -5 0 -10 5 -10 10 0 6 5 10 10 10 6 0
10 -4 10 -10z m185 0 c3 -5 1 -10 -4 -10 -6 0 -11 5 -11 10 0 6 2 10 4 10 3 0
8 -4 11 -10z m-115 -20 c0 -5 -4 -10 -10 -10 -5 0 -10 5 -10 10 0 6 5 10 10
10 6 0 10 -4 10 -10z m140 -10 c0 -5 -4 -10 -10 -10 -5 0 -10 5 -10 10 0 6 5
10 10 10 6 0 10 -4 10 -10z m2490 -30 c-27 -27 -35 -25 -13 4 10 13 21 22 25
20 4 -3 -2 -14 -12 -24z m81 3 c-8 -15 -10 -15 -11 -2 0 17 10 32 18 25 2 -3
-1 -13 -7 -23z m-2671 -26 c0 -6 -9 -1 -20 11 -11 12 -20 24 -20 28 0 4 9 -1
20 -11 11 -10 20 -23 20 -28z m2776 -4 c-145 -178 -164 -199 -170 -192 -3 3 7
18 22 34 15 17 53 63 86 103 32 39 62 72 67 72 5 0 2 -8 -5 -17z m-2831 -3 c3
-5 2 -10 -4 -10 -5 0 -13 5 -16 10 -3 6 -2 10 4 10 5 0 13 -4 16 -10z m2765 4
c0 -7 -27 -34 -34 -34 -4 0 -1 9 6 20 12 19 28 27 28 14z m-2676 -38 c9 -15
12 -27 6 -31 -5 -3 -16 8 -25 25 -19 36 -4 40 19 6z m2510 9 c-7 -16 -24 -21
-24 -6 0 8 7 13 27 20 1 1 0 -6 -3 -14z m86 11 c0 -2 -7 -9 -15 -16 -13 -11
-14 -10 -9 4 5 14 24 23 24 12z m22 -56 c-30 -28 -34 -25 -14 10 11 18 20 26
26 20 6 -6 2 -17 -12 -30z m-2542 20 c0 -5 -2 -10 -4 -10 -3 0 -8 5 -11 10 -3
6 -1 10 4 10 6 0 11 -4 11 -10z m2386 -28 c-17 -33 -46 -60 -46 -44 0 6 6 15
14 19 7 4 18 18 25 31 6 12 14 22 17 22 2 0 -2 -13 -10 -28z m-2416 -22 c6
-11 9 -20 7 -20 -2 0 -12 9 -22 20 -10 11 -13 20 -7 20 6 0 16 -9 22 -20z
m-37 -35 c10 -14 16 -25 13 -25 -9 0 -46 34 -46 42 0 15 15 7 33 -17z m2562 5
c-3 -5 -12 -10 -18 -10 -7 0 -6 4 3 10 19 12 23 12 15 0z m333 -64 c-173 -164
-242 -226 -250 -224 -4 2 47 55 114 118 68 63 136 130 153 148 16 18 31 28 33
22 3 -7 -20 -35 -50 -64z m-2761 49 c8 -9 13 -18 11 -21 -3 -2 -13 5 -23 16
-21 23 -11 27 12 5z m-97 -35 c0 -5 -2 -10 -4 -10 -3 0 -8 5 -11 10 -3 6 -1
10 4 10 6 0 11 -4 11 -10z m2960 -10 c-32 -25 -49 -26 -24 -1 10 11 26 20 34
20 10 0 6 -6 -10 -19z m-2820 -11 c0 -6 -4 -7 -10 -4 -5 3 -10 11 -10 16 0 6
5 7 10 4 6 -3 10 -11 10 -16z m2321 4 c-5 -10 -28 -36 -52 -58 -52 -49 -41
-26 15 32 45 47 51 51 37 26z m31 -40 c-36 -45 -192 -200 -192 -191 0 3 45 53
100 109 55 57 100 107 100 112 0 4 5 7 11 7 6 0 -3 -17 -19 -37z m-2461 10
c13 -16 12 -17 -3 -4 -10 7 -18 15 -18 17 0 8 8 3 21 -13z m2180 -10 c-18 -31
-41 -57 -45 -52 -3 3 6 19 20 37 27 35 41 43 25 15z m149 3 c0 -3 -4 -8 -10
-11 -5 -3 -10 -1 -10 4 0 6 5 11 10 11 6 0 10 -2 10 -4z m520 -26 c-6 -11 -15
-20 -20 -20 -13 0 -12 8 3 25 18 21 29 18 17 -5z m-50 -51 c-6 -11 -18 -23
-26 -26 -9 -3 -35 -24 -58 -47 -120 -115 -221 -194 -233 -183 -2 3 15 19 39
36 41 30 63 49 208 181 68 63 88 74 70 39z m-521 -49 c-29 -33 -57 -60 -63
-60 -6 0 16 27 49 60 33 33 61 60 63 60 2 0 -20 -27 -49 -60z m-119 10 c0 -5
-5 -10 -11 -10 -5 0 -7 5 -4 10 3 6 8 10 11 10 2 0 4 -4 4 -10z m-1960 -10 c0
-5 -4 -10 -10 -10 -5 0 -10 5 -10 10 0 6 5 10 10 10 6 0 10 -4 10 -10z m2010
-4 c0 -2 -8 -10 -17 -17 -16 -13 -17 -12 -4 4 13 16 21 21 21 13z m-77 -80
c-15 -19 -32 -35 -37 -35 -6 -1 5 15 24 34 43 45 50 45 13 1z m437 10 c0 -6
-168 -146 -175 -146 -7 0 65 69 122 117 34 30 53 40 53 29z m-424 -62 c-21
-19 -40 -33 -43 -31 -4 5 67 67 77 67 3 0 -12 -16 -34 -36z m58 -7 c-2 -7 -14
-18 -25 -25 -18 -12 -19 -11 -10 7 9 16 17 23 38 30 1 1 0 -5 -3 -12z m-171
-42 c-10 -13 -25 -27 -33 -30 -8 -4 -2 8 14 24 36 37 43 40 19 6z m-1868 -5
c3 -5 1 -10 -4 -10 -6 0 -11 5 -11 10 0 6 2 10 4 10 3 0 8 -4 11 -10z m1925
-61 c-36 -32 -76 -69 -90 -81 -83 -77 -56 -42 35 45 61 58 112 103 115 100 3
-2 -24 -31 -60 -64z m-53 12 c-29 -27 -53 -48 -55 -46 -5 5 87 95 97 95 5 0
-14 -22 -42 -49z m443 15 c0 -3 -15 -15 -32 -27 l-33 -23 24 27 c22 24 41 35
41 23z m-265 -36 c-30 -31 -45 -38 -45 -20 0 6 11 15 24 20 13 5 27 14 31 19
3 6 9 11 12 11 4 0 -6 -13 -22 -30z m157 8 c-7 -7 -12 -8 -12 -2 0 14 12 26
19 19 2 -3 -1 -11 -7 -17z m-402 9 c0 -2 -10 -12 -22 -23 l-23 -19 19 23 c18
21 26 27 26 19z m368 -29 c-8 -12 -21 -24 -29 -26 -8 -3 -3 7 10 22 30 32 39
34 19 4z m-402 -64 c-21 -19 -40 -33 -43 -31 -2 3 13 21 34 40 20 20 40 34 42
31 3 -3 -12 -21 -33 -40z m-1605 -4 c22 -22 43 -40 46 -40 3 0 19 -13 35 -30
15 -16 32 -30 36 -30 4 0 20 -14 36 -30 43 -44 56 -37 15 8 -67 73 -82 92 -71
92 6 0 27 -15 45 -32 71 -69 130 -118 141 -118 6 0 22 -13 36 -30 14 -16 29
-30 35 -30 6 0 18 -9 28 -20 17 -20 37 -27 37 -12 0 4 -32 31 -70 61 -62 49
-87 77 -76 88 2 2 17 -8 34 -22 33 -28 54 -33 46 -10 -4 9 0 15 9 15 8 0 20
-7 27 -15 7 -8 19 -15 26 -15 8 0 14 -6 14 -12 0 -7 16 -23 35 -36 19 -12 35
-18 35 -13 0 5 -7 11 -15 15 -17 6 -21 36 -5 36 6 0 10 -4 10 -8 0 -8 25 -23
65 -41 6 -2 4 3 -4 13 -8 9 -12 18 -9 21 8 8 48 -7 48 -18 0 -13 89 -97 104
-97 5 0 -14 24 -43 52 -29 30 -46 55 -40 57 7 2 18 -4 24 -13 7 -9 15 -16 19
-16 12 0 81 -72 78 -81 -1 -5 3 -9 9 -9 6 0 26 -12 45 -26 55 -43 39 -17 -36
57 -59 59 -82 89 -67 89 5 0 38 -28 122 -105 39 -35 83 -74 99 -88 46 -38 23
-54 -24 -17 -39 31 -50 36 -50 22 0 -5 12 -15 27 -23 51 -27 71 -52 66 -82 -3
-16 -1 -27 6 -27 19 0 12 -17 -9 -23 -11 -3 -18 -1 -14 4 3 5 0 9 -5 9 -6 0
-11 7 -11 15 0 8 -4 15 -9 15 -14 0 -76 58 -69 65 4 4 17 -2 29 -14 22 -20 39
-27 39 -15 0 6 -55 54 -76 66 -9 6 -11 2 -7 -13 6 -21 6 -21 -22 -3 l-28 18
12 -22 c6 -12 16 -22 20 -22 5 0 11 -7 15 -15 9 -25 -11 -17 -61 26 -84 72
-93 79 -98 79 -3 0 -25 20 -49 45 -25 25 -47 45 -50 45 -14 0 -4 -31 12 -37 9
-4 34 -24 56 -45 21 -21 42 -38 47 -38 5 0 9 -7 9 -15 0 -8 6 -15 14 -15 8 0
38 -22 68 -50 63 -60 53 -66 -17 -10 -65 51 -86 52 -33 0 23 -22 39 -43 35
-47 -4 -3 -15 1 -25 10 -9 10 -55 47 -101 85 -46 37 -97 77 -112 90 -16 13
-29 20 -29 15 1 -13 45 -60 69 -72 11 -7 21 -16 21 -21 0 -12 -27 -13 -32 -2
-1 4 -23 23 -48 42 -24 19 -51 41 -58 48 -7 6 -17 12 -22 12 -4 0 -22 14 -40
30 -18 17 -35 28 -38 25 -6 -5 29 -37 95 -88 23 -18 43 -38 43 -44 0 -7 7 -13
15 -13 17 0 20 -16 6 -25 -6 -3 -13 1 -18 8 -4 7 -24 24 -43 37 -19 13 -64 49
-100 80 -36 31 -100 84 -142 118 -86 69 -228 203 -228 215 0 17 23 4 61 -33z
m1569 37 c0 -2 -10 -12 -22 -23 l-23 -19 19 23 c18 21 26 27 26 19z m255 -7
c-3 -5 -16 -15 -28 -21 -21 -10 -21 -9 2 10 25 23 36 27 26 11z m-315 -5 c0
-2 -10 -10 -22 -16 -21 -11 -22 -11 -9 4 13 16 31 23 31 12z m260 -35 c0 -5
-5 -10 -11 -10 -5 0 -7 5 -4 10 3 6 8 10 11 10 2 0 4 -4 4 -10z m150 -5 c-7
-8 -18 -15 -24 -15 -6 0 -2 7 8 15 25 19 32 19 16 0z m-105 -25 c-3 -5 -11
-10 -16 -10 -6 0 -7 5 -4 10 3 6 11 10 16 10 6 0 7 -4 4 -10z m-2155 -34 c0
-9 7 -12 18 -9 11 2 28 -7 45 -26 34 -39 34 -43 -3 -24 -17 8 -27 19 -24 25 4
7 2 8 -4 4 -12 -7 -61 22 -62 37 0 4 7 7 15 7 8 0 15 -6 15 -14z m1860 4 c0
-5 -5 -10 -11 -10 -5 0 -7 5 -4 10 3 6 8 10 11 10 2 0 4 -4 4 -10z m-1696
-110 c48 -31 63 -42 96 -72 10 -9 34 -24 53 -33 19 -9 44 -25 55 -35 12 -11
28 -20 37 -20 8 0 15 -7 15 -16 0 -15 -3 -14 -27 2 -16 10 -58 35 -94 56 -36
21 -78 49 -93 63 -15 14 -30 25 -33 25 -11 0 -73 45 -73 53 0 13 15 7 64 -23z
m781 0 c3 -5 2 -10 -4 -10 -5 0 -13 5 -16 10 -3 6 -2 10 4 10 5 0 13 -4 16
-10z m484 -39 c-140 -192 -155 -197 -259 -88 -39 39 -70 78 -70 85 0 14 30
-12 97 -80 38 -39 56 -49 47 -23 -3 8 -14 17 -25 20 -11 4 -17 10 -14 15 3 4
-7 17 -22 28 -16 11 -25 23 -21 27 4 4 28 -13 53 -39 35 -34 45 -50 40 -65 -3
-11 0 -23 6 -27 11 -7 33 14 137 129 36 39 54 50 31 18z m97 -15 c-24 -38 -20
-41 16 -11 32 27 52 19 28 -11 -25 -29 -2 -25 29 5 39 38 60 41 32 5 -32 -41
-25 -52 10 -16 34 35 52 41 42 16 -7 -19 -51 -64 -62 -64 -4 0 -24 -17 -43
-37 -19 -21 -77 -76 -128 -123 -51 -47 -104 -96 -116 -110 -13 -13 -26 -21
-30 -17 -4 4 50 63 121 132 70 69 126 127 124 129 -2 3 -43 -32 -90 -77 -117
-112 -160 -149 -166 -143 -3 3 51 61 121 129 69 68 126 127 126 131 0 14 -49
-27 -139 -119 -83 -85 -111 -107 -111 -90 0 3 12 18 28 34 109 111 129 145 26
44 -24 -24 -46 -43 -49 -43 -15 0 0 26 36 62 22 22 39 42 37 44 -2 2 -20 -12
-40 -32 -55 -52 -55 -24 0 32 26 27 68 73 95 103 26 30 50 51 53 48 7 -6 -48
-80 -86 -114 -14 -12 -20 -22 -15 -23 6 0 44 33 85 74 76 74 96 87 66 42z
m-186 -38 c-41 -51 -72 -78 -54 -45 14 24 88 107 92 102 2 -2 -15 -27 -38 -57z
m-30 23 c-11 -21 -30 -37 -30 -25 0 8 30 44 37 44 2 0 -1 -9 -7 -19z m-408
-231 c65 -63 77 -95 14 -35 -21 19 -41 35 -46 35 -4 0 -10 7 -14 15 -3 8 -12
15 -21 15 -8 0 -15 7 -15 15 0 27 20 16 82 -45z m18 35 c7 -8 16 -13 20 -10 5
3 11 1 15 -5 3 -5 -1 -10 -10 -10 -22 0 -55 18 -55 30 0 15 16 12 30 -5z m93
-67 c54 -43 87 -74 87 -82 0 -7 -86 58 -119 90 -34 34 -16 29 32 -8z m177 2
c0 -14 -14 -12 -28 2 -19 19 -14 30 8 18 11 -6 20 -15 20 -20z m-275 -48 c-6
-7 -45 19 -45 29 0 5 11 2 24 -8 13 -10 23 -19 21 -21z m216 -3 c9 -17 8 -20
-2 -13 -24 15 -49 38 -49 47 0 14 39 -12 51 -34z m49 9 c0 -12 -6 -9 -26 13
-19 22 -19 22 4 8 12 -8 22 -17 22 -21z m-160 -23 c20 -24 7 -26 -25 -5 -27
18 -28 20 -9 20 12 0 27 -7 34 -15z m206 0 c-3 -8 0 -15 6 -15 14 0 48 -30 48
-42 0 -11 -37 8 -72 38 -24 19 -25 23 -10 27 31 8 34 7 28 -8z m-276 -16 c0
-5 -4 -9 -10 -9 -5 0 -10 7 -10 16 0 8 5 12 10 9 6 -3 10 -10 10 -16z m335 12
c10 -17 -12 -21 -25 -6 -10 12 -10 15 3 15 9 0 18 -4 22 -9z m-109 -28 c-7 -7
-26 7 -26 19 0 6 6 6 15 -2 9 -7 13 -15 11 -17z"/>
<path d="M295 2390 c-3 -5 -1 -10 4 -10 6 0 11 5 11 10 0 6 -2 10 -4 10 -3 0
-8 -4 -11 -10z"/>
<path d="M1320 510 c0 -5 7 -10 16 -10 8 0 12 5 9 10 -3 6 -10 10 -16 10 -5 0
-9 -4 -9 -10z"/>
<path d="M1626 486 c10 -8 21 -12 24 -10 5 6 -21 24 -34 24 -6 0 -1 -6 10 -14z"/>
<path d="M1480 445 c0 -8 4 -15 10 -15 5 0 7 7 4 15 -4 8 -8 15 -10 15 -2 0
-4 -7 -4 -15z"/>
<path d="M1670 440 c0 -5 5 -10 11 -10 5 0 7 5 4 10 -3 6 -8 10 -11 10 -2 0
-4 -4 -4 -10z"/>
<path d="M1625 370 c3 -5 8 -10 11 -10 2 0 4 5 4 10 0 6 -5 10 -11 10 -5 0 -7
-4 -4 -10z"/>
<path d="M1940 260 c0 -5 5 -10 11 -10 5 0 7 5 4 10 -3 6 -8 10 -11 10 -2 0
-4 -4 -4 -10z"/>
<path d="M2160 420 c-9 -6 -10 -10 -3 -10 6 0 15 5 18 10 8 12 4 12 -15 0z"/>
<path d="M1167 3670 c3 -11 7 -20 9 -20 2 0 4 9 4 20 0 11 -4 20 -9 20 -5 0
-7 -9 -4 -20z"/>
<path d="M1065 3660 c-3 -5 -1 -10 4 -10 6 0 11 5 11 10 0 6 -2 10 -4 10 -3 0
-8 -4 -11 -10z"/>
<path d="M3056 3624 c-9 -26 -14 -49 -12 -51 2 -2 11 17 20 43 9 26 14 49 12
51 -2 2 -11 -17 -20 -43z"/>
<path d="M3217 3660 c-12 -30 -26 -94 -23 -98 7 -7 38 87 33 100 -4 10 -6 10
-10 -2z"/>
<path d="M849 3643 c-3 -24 5 -69 17 -96 l15 -32 -5 40 c-3 22 -6 52 -6 68 0
23 -18 40 -21 20z"/>
<path d="M1175 3630 c3 -5 8 -10 11 -10 2 0 4 5 4 10 0 6 -5 10 -11 10 -5 0
-7 -4 -4 -10z"/>
<path d="M1422 3607 c0 -19 4 -40 9 -48 5 -9 7 1 5 29 -4 53 -14 66 -14 19z"/>
<path d="M2939 3602 c-13 -20 -35 -75 -48 -122 -13 -47 -34 -118 -48 -159 -41
-122 -19 -91 32 46 67 180 96 265 92 269 -2 2 -14 -13 -28 -34z"/>
<path d="M3261 3603 c-17 -43 -41 -127 -37 -131 2 -2 10 14 16 35 7 21 16 43
20 48 9 12 23 75 17 75 -3 0 -10 -12 -16 -27z"/>
<path d="M802 3608 c-11 -14 -10 -23 18 -162 23 -111 36 -140 26 -56 -4 30 -9
94 -13 143 -6 86 -11 99 -31 75z"/>
<path d="M1576 3503 c3 -65 7 -131 9 -148 2 -16 4 -42 4 -57 1 -16 5 -28 10
-28 5 0 8 12 6 28 -3 23 -17 273 -18 310 0 6 -4 12 -9 12 -4 0 -5 -53 -2 -117z"/>
<path d="M1760 3535 c0 -38 3 -66 6 -62 4 3 7 31 7 62 0 31 -3 59 -7 62 -3 4
-6 -24 -6 -62z"/>
<path d="M3287 3517 c-14 -45 -29 -94 -33 -110 -3 -15 -10 -30 -15 -33 -11 -7
-12 -24 0 -24 4 0 15 24 24 53 8 28 27 82 41 119 14 37 22 69 17 72 -4 3 -20
-32 -34 -77z"/>
<path d="M1852 3550 c-2 -22 2 -40 8 -40 5 0 9 18 8 40 -1 22 -4 40 -8 40 -3
0 -7 -18 -8 -40z"/>
<path d="M3101 3574 c0 -11 3 -14 6 -6 3 7 2 16 -1 19 -3 4 -6 -2 -5 -13z"/>
<path d="M1713 3529 c8 -71 17 -74 17 -6 0 35 -4 57 -11 57 -8 0 -9 -17 -6
-51z"/>
<path d="M2431 3554 c0 -11 3 -14 6 -6 3 7 2 16 -1 19 -3 4 -6 -2 -5 -13z"/>
<path d="M1985 3550 c-3 -5 -1 -10 4 -10 6 0 11 5 11 10 0 6 -2 10 -4 10 -3 0
-8 -4 -11 -10z"/>
<path d="M3013 3518 c-12 -24 -32 -77 -44 -118 -12 -41 -35 -113 -51 -160 -78
-227 -118 -340 -138 -390 -12 -30 -24 -66 -27 -80 -3 -14 -9 -29 -13 -35 -4
-5 -10 -22 -14 -37 -3 -14 -8 -34 -11 -45 -3 -10 6 6 20 36 14 29 31 74 39
100 16 49 36 106 111 316 25 72 53 150 62 175 8 25 21 59 28 75 58 133 87 259
38 163z"/>
<path d="M1280 3540 c-8 -5 -10 -10 -4 -10 7 0 14 -19 17 -42 4 -24 9 -64 13
-90 3 -27 10 -48 14 -48 3 0 1 39 -6 88 -8 48 -12 93 -9 100 5 14 -4 15 -25 2z"/>
<path d="M1938 3510 c-2 -22 0 -40 4 -40 5 0 8 18 8 40 0 22 -2 40 -4 40 -2 0
-6 -18 -8 -40z"/>
<path d="M3070 3504 c-11 -26 -20 -50 -20 -54 0 -4 -7 -13 -15 -20 -8 -7 -15
-23 -15 -35 0 -12 -7 -42 -16 -66 -9 -24 -22 -67 -30 -96 -7 -29 -22 -72 -33
-95 -10 -24 -29 -72 -41 -108 -12 -36 -46 -127 -76 -203 -30 -77 -53 -144 -51
-150 5 -14 27 37 62 138 13 39 41 113 60 165 42 109 49 128 138 383 65 184 78
232 37 141z"/>
<path d="M3176 3535 c-3 -8 -1 -15 4 -15 6 0 10 7 10 15 0 8 -2 15 -4 15 -2 0
-6 -7 -10 -15z"/>
<path d="M3356 3533 c-3 -10 -7 -36 -10 -58 l-6 -40 20 40 c21 43 26 75 11 75
-5 0 -12 -8 -15 -17z"/>
<path d="M1620 3525 c0 -8 4 -15 10 -15 5 0 7 7 4 15 -4 8 -8 15 -10 15 -2 0
-4 -7 -4 -15z"/>
<path d="M2466 3514 c-8 -21 -8 -39 1 -30 8 7 15 46 9 46 -2 0 -7 -7 -10 -16z"/>
<path d="M2946 3484 c-4 -19 -10 -42 -13 -50 -3 -8 0 -14 6 -14 6 0 11 7 11
15 0 8 4 15 8 15 5 0 8 10 7 23 -1 12 2 28 8 35 7 8 5 12 -6 12 -9 0 -17 -13
-21 -36z"/>
<path d="M870 3495 c0 -11 5 -27 10 -35 8 -12 10 -12 10 5 0 11 -5 27 -10 35
-8 12 -10 12 -10 -5z"/>
<path d="M2272 3490 c0 -14 2 -19 5 -12 2 6 2 18 0 25 -3 6 -5 1 -5 -13z"/>
<path d="M2415 3495 c-3 -8 -7 -22 -10 -30 -2 -8 -1 -15 4 -15 5 0 11 14 13
30 5 32 1 40 -7 15z"/>
<path d="M1852 3415 l1 -90 7 75 c3 41 3 82 -2 90 -4 8 -7 -25 -6 -75z"/>
<path d="M1897 3493 c-4 -3 -7 -27 -6 -52 0 -39 2 -43 10 -22 5 13 8 36 7 52
-3 32 -2 32 -11 22z"/>
<path d="M2220 3495 c0 -10 -30 -200 -36 -225 -3 -15 -2 -21 4 -15 5 6 14 48
21 95 7 47 15 100 18 118 3 17 2 32 -1 32 -3 0 -6 -2 -6 -5z"/>
<path d="M3376 3382 c-21 -64 -49 -137 -62 -162 -58 -113 -74 -149 -89 -200
-22 -73 -53 -159 -71 -192 -8 -14 -14 -31 -14 -38 0 -6 -15 -43 -34 -83 -18
-40 -39 -89 -47 -109 -7 -21 -15 -38 -19 -38 -3 0 -5 -11 -5 -25 0 -32 7 -22
40 55 15 36 33 79 41 95 7 17 41 98 74 180 34 83 71 170 82 195 11 25 27 68
35 95 16 54 83 225 112 290 18 38 19 55 3 55 -4 0 -24 -53 -46 -118z"/>
<path d="M1630 3437 l5 -52 3 44 c2 24 0 47 -5 52 -4 4 -6 -15 -3 -44z"/>
<path d="M1982 3440 c-1 -30 -5 -73 -8 -95 -4 -32 -3 -36 6 -23 6 11 9 50 7
95 -2 63 -3 67 -5 23z"/>
<path d="M2356 3455 c-3 -9 -6 -29 -5 -43 1 -22 3 -19 10 12 10 40 6 60 -5 31z"/>
<path d="M1718 3455 c-6 -6 0 -107 7 -114 3 -2 5 23 5 57 0 61 -1 67 -12 57z"/>
<path d="M1760 3441 c0 -25 6 -27 13 -6 4 8 2 17 -3 20 -6 4 -10 -3 -10 -14z"/>
<path d="M2020 3440 c0 -11 5 -20 10 -20 6 0 10 9 10 20 0 11 -4 20 -10 20 -5
0 -10 -9 -10 -20z"/>
<path d="M2076 3448 c-9 -28 -14 -98 -7 -98 4 0 8 21 10 47 1 26 4 50 7 55 3
4 3 8 -1 8 -3 0 -7 -6 -9 -12z"/>
<path d="M3123 3392 c-17 -38 -39 -95 -48 -128 -20 -72 -112 -348 -130 -389
-29 -69 -85 -231 -85 -245 1 -21 17 8 35 62 15 49 43 126 52 148 3 8 7 17 7
20 2 7 34 94 71 190 48 125 136 392 133 402 -2 5 -18 -22 -35 -60z"/>
<path d="M3451 3433 c-6 -15 -16 -43 -21 -60 -6 -18 -14 -46 -19 -63 -6 -19
-6 -30 0 -30 5 0 12 8 15 18 3 9 18 45 32 80 17 43 22 66 15 73 -7 7 -14 1
-22 -18z"/>
<path d="M1930 3440 c0 -5 5 -10 11 -10 5 0 7 5 4 10 -3 6 -8 10 -11 10 -2 0
-4 -4 -4 -10z"/>
<path d="M2262 3430 c0 -14 2 -19 5 -12 2 6 2 18 0 25 -3 6 -5 1 -5 -13z"/>
<path d="M880 3420 c0 -5 5 -10 11 -10 5 0 7 5 4 10 -3 6 -8 10 -11 10 -2 0
-4 -4 -4 -10z"/>
<path d="M1540 3392 c0 -22 5 -44 10 -47 7 -4 8 8 4 37 -9 57 -14 61 -14 10z"/>
<path d="M3326 3415 c-9 -26 -7 -32 5 -12 6 10 9 21 6 23 -2 3 -7 -2 -11 -11z"/>
<path d="M1492 3395 c0 -16 2 -22 5 -12 2 9 2 23 0 30 -3 6 -5 -1 -5 -18z"/>
<path d="M1679 3408 c-2 -7 -1 -51 2 -98 l5 -85 2 98 c2 91 -1 115 -9 85z"/>
<path d="M3498 3393 c-3 -15 -17 -63 -31 -105 -13 -43 -22 -78 -18 -78 3 0 21
36 40 80 29 69 36 78 52 70 15 -8 16 -15 8 -42 -6 -18 -15 -49 -21 -68 -5 -19
-18 -54 -29 -77 -11 -23 -22 -54 -24 -70 l-4 -28 14 30 c7 17 25 56 40 87 14
32 35 63 47 69 16 8 18 13 7 19 -10 7 -10 11 0 24 15 18 15 17 -45 82 l-32 35
-4 -28z"/>
<path d="M1760 3376 c0 -23 4 -35 10 -31 6 4 9 17 7 30 -5 40 -17 41 -17 1z"/>
<path d="M2021 3400 c-1 -8 -4 -42 -6 -75 -4 -59 -4 -59 6 -15 5 25 8 59 6 75
-2 17 -5 23 -6 15z"/>
<path d="M2916 3378 c-4 -18 -20 -71 -36 -118 -45 -127 -49 -141 -40 -135 8 5
41 93 39 105 0 3 11 31 25 62 29 64 41 118 27 118 -4 0 -11 -15 -15 -32z"/>
<path d="M3074 3392 c-6 -9 -25 -62 -42 -117 -17 -55 -70 -203 -117 -330 -96
-256 -118 -322 -105 -309 16 16 206 529 271 732 12 38 9 50 -7 24z"/>
<path d="M2296 3385 c-3 -9 -6 -24 -5 -33 0 -9 5 -4 10 12 9 32 6 48 -5 21z"/>
<path d="M2490 3397 c0 -1 -4 -18 -10 -36 -5 -20 -6 -31 -1 -25 12 11 25 64
17 64 -3 0 -6 -1 -6 -3z"/>
<path d="M3167 3346 c-15 -30 -27 -57 -27 -60 0 -2 -5 -17 -12 -33 -6 -15 -12
-32 -14 -38 -17 -65 -107 -310 -160 -436 -13 -31 -24 -63 -24 -71 0 -7 -6 -22
-14 -33 -7 -11 -15 -31 -18 -45 -3 -14 -9 -34 -13 -45 -7 -18 -6 -18 7 -5 9 8
32 60 52 115 20 55 40 109 45 120 53 123 214 575 208 582 -2 1 -16 -21 -30
-51z"/>
<path d="M1893 3330 c0 -36 2 -50 4 -32 2 17 2 47 0 65 -2 17 -4 3 -4 -33z"/>
<path d="M2247 3376 c-4 -10 -7 -30 -6 -44 1 -25 1 -25 10 6 11 37 7 67 -4 38z"/>
<path d="M2435 3375 c-3 -8 -7 -22 -10 -31 -3 -8 -1 -13 4 -10 5 3 11 17 13
31 6 27 0 34 -7 10z"/>
<path d="M2150 3358 c0 -19 2 -20 10 -8 13 19 13 30 0 30 -5 0 -10 -10 -10
-22z"/>
<path d="M2337 3361 c-4 -17 -3 -21 5 -13 5 5 8 16 6 23 -3 8 -7 3 -11 -10z"/>
<path d="M1631 3348 c-1 -16 4 -28 9 -28 12 0 12 8 0 35 -8 18 -9 17 -9 -7z"/>
<path d="M2369 3305 c-8 -36 -12 -65 -8 -65 7 0 33 120 27 126 -2 2 -11 -26
-19 -61z"/>
<path d="M1166 3351 c-4 -5 -2 -20 3 -33 9 -21 10 -21 10 10 1 32 -3 39 -13
23z"/>
<path d="M1813 3285 c0 -38 2 -53 4 -32 2 20 2 52 0 70 -2 17 -4 1 -4 -38z"/>
<path d="M2651 3237 c-18 -62 -45 -151 -60 -199 -16 -49 -25 -88 -22 -88 7 0
97 283 112 349 17 80 4 52 -30 -62z"/>
<path d="M3525 3340 c-3 -5 -1 -10 4 -10 6 0 11 5 11 10 0 6 -2 10 -4 10 -3 0
-8 -4 -11 -10z"/>
<path d="M1317 3304 c10 -62 23 -85 16 -29 -3 28 -9 54 -14 59 -5 5 -6 -8 -2
-30z"/>
<path d="M2063 3305 c0 -22 2 -30 4 -17 2 12 2 30 0 40 -3 9 -5 -1 -4 -23z"/>
<path d="M2629 3337 c-1 -4 -2 -10 -3 -14 -1 -5 -5 -13 -9 -20 -4 -6 -3 -14 2
-17 10 -6 25 43 16 52 -3 3 -6 2 -6 -1z"/>
<path d="M3221 3316 c-6 -14 -14 -26 -19 -26 -4 0 -16 -26 -27 -57 -10 -32
-23 -64 -28 -71 -6 -7 -7 -15 -5 -18 6 -6 -40 -160 -72 -244 -12 -30 -25 -67
-30 -82 -5 -15 -15 -40 -24 -55 -16 -29 -86 -216 -86 -230 0 -20 40 62 74 152
20 55 46 120 56 145 34 78 152 403 166 455 14 53 11 74 -5 31z"/>
<path d="M1549 3321 c-7 -20 3 -111 11 -106 5 3 6 29 3 58 -5 54 -9 65 -14 48z"/>
<path d="M1720 3281 c0 -30 3 -52 6 -49 10 10 12 75 3 89 -6 9 -9 -5 -9 -40z"/>
<path d="M1761 3314 c0 -11 3 -14 6 -6 3 7 2 16 -1 19 -3 4 -6 -2 -5 -13z"/>
<path d="M1932 3305 c0 -16 2 -22 5 -12 2 9 2 23 0 30 -3 6 -5 -1 -5 -18z"/>
<path d="M1505 3251 c4 -40 11 -83 15 -95 7 -15 8 -11 5 19 -3 22 -7 62 -9 89
-3 27 -8 51 -12 55 -3 3 -3 -27 1 -68z"/>
<path d="M1853 3280 c0 -25 2 -35 4 -22 2 12 2 32 0 45 -2 12 -4 2 -4 -23z"/>
<path d="M2276 3284 c-4 -20 -5 -38 -3 -40 3 -3 8 11 11 32 4 20 5 38 3 40 -3
3 -8 -11 -11 -32z"/>
<path d="M2467 3313 c-9 -15 -57 -216 -53 -221 3 -2 10 16 16 39 7 24 20 75
31 113 17 63 19 91 6 69z"/>
<path d="M1630 3300 c0 -5 5 -10 10 -10 6 0 10 5 10 10 0 6 -4 10 -10 10 -5 0
-10 -4 -10 -10z"/>
<path d="M2097 3266 c-5 -21 -6 -41 -3 -44 12 -11 17 7 14 44 l-3 39 -8 -39z"/>
<path d="M2147 3293 c-4 -3 -7 -16 -6 -27 0 -19 1 -19 10 3 10 24 8 36 -4 24z"/>
<path d="M1760 3281 c0 -5 5 -13 10 -16 6 -3 10 -2 10 4 0 5 -4 13 -10 16 -5
3 -10 2 -10 -4z"/>
<path d="M2407 3271 c-4 -17 -3 -21 5 -13 5 5 8 16 6 23 -3 8 -7 3 -11 -10z"/>
<path d="M3606 3279 c-3 -8 -14 -46 -25 -84 -11 -39 -27 -79 -35 -90 -9 -11
-16 -31 -16 -45 0 -14 -7 -36 -15 -50 -8 -14 -14 -32 -14 -40 0 -8 6 0 14 17
66 154 94 210 110 223 19 16 19 54 0 70 -12 10 -16 10 -19 -1z"/>
<path d="M1641 3264 c0 -11 3 -14 6 -6 3 7 2 16 -1 19 -3 4 -6 -2 -5 -13z"/>
<path d="M1926 3261 c-4 -7 -5 -15 -2 -18 9 -9 19 4 14 18 -4 11 -6 11 -12 0z"/>
<path d="M1966 3248 c-6 -25 -9 -204 -2 -197 5 6 17 219 12 219 -2 0 -6 -10
-10 -22z"/>
<path d="M2607 3263 c-7 -11 -36 -121 -43 -163 -2 -14 10 15 26 65 27 80 35
128 17 98z"/>
<path d="M1180 3241 c0 -12 5 -21 10 -21 6 0 10 6 10 14 0 8 -4 18 -10 21 -5
3 -10 -3 -10 -14z"/>
<path d="M1590 3253 c0 -5 5 -15 10 -23 8 -12 10 -11 10 8 0 12 -4 22 -10 22
-5 0 -10 -3 -10 -7z"/>
<path d="M1892 3235 c0 -16 2 -22 5 -12 2 9 2 23 0 30 -3 6 -5 -1 -5 -18z"/>
<path d="M3231 3175 c-23 -48 -43 -98 -45 -112 -3 -14 -9 -30 -14 -36 -5 -7
-13 -28 -17 -47 -4 -19 -14 -48 -23 -65 -48 -93 -166 -395 -154 -395 8 0 42
57 42 71 0 6 11 35 25 65 14 30 25 57 25 61 0 6 100 249 133 323 11 25 23 56
28 70 4 14 17 51 29 84 11 32 19 60 16 63 -2 2 -22 -35 -45 -82z"/>
<path d="M2010 3240 c-1 -3 -4 -18 -6 -35 -2 -24 -1 -27 7 -12 6 10 8 25 6 35
-3 9 -6 15 -7 12z"/>
<path d="M2050 3211 c0 -16 -3 -36 -6 -45 -3 -9 -2 -16 3 -16 5 0 10 20 12 45
1 25 -1 45 -4 45 -3 0 -5 -13 -5 -29z"/>
<path d="M2401 3224 c0 -11 3 -14 6 -6 3 7 2 16 -1 19 -3 4 -6 -2 -5 -13z"/>
<path d="M2345 3200 c-4 -17 -5 -34 -2 -36 3 -3 8 9 12 26 4 17 5 34 2 36 -3
3 -8 -9 -12 -26z"/>
<path d="M2796 3178 c-10 -29 -29 -82 -43 -116 -13 -35 -22 -66 -19 -69 6 -6
10 4 56 132 17 49 29 92 28 97 -2 5 -12 -14 -22 -44z"/>
<path d="M2261 3204 c0 -11 3 -14 6 -6 3 7 2 16 -1 19 -3 4 -6 -2 -5 -13z"/>
<path d="M1191 3194 c0 -11 3 -14 6 -6 3 7 2 16 -1 19 -3 4 -6 -2 -5 -13z"/>
<path d="M1332 3200 c3 -9 11 -58 18 -110 13 -94 33 -164 25 -85 -9 90 -28
191 -38 200 -7 7 -8 5 -5 -5z"/>
<path d="M1460 3198 c0 -9 5 -20 10 -23 13 -8 13 5 0 25 -8 13 -10 13 -10 -2z"/>
<path d="M1812 3180 c0 -19 2 -27 5 -17 2 9 2 25 0 35 -3 9 -5 1 -5 -18z"/>
<path d="M2087 3190 c-4 -14 -6 -43 -6 -65 l1 -40 9 45 c11 54 8 101 -4 60z"/>
<path d="M3550 3200 c0 -5 5 -10 10 -10 6 0 10 5 10 10 0 6 -4 10 -10 10 -5 0
-10 -4 -10 -10z"/>
<path d="M1145 3189 c-4 -5 -2 -22 3 -37 6 -15 16 -57 22 -95 7 -37 16 -70 21
-73 12 -7 11 13 -1 56 -10 34 -22 107 -24 143 0 19 -11 23 -21 6z"/>
<path d="M1380 3177 c0 -14 5 -29 10 -32 7 -4 8 3 4 22 -9 38 -14 42 -14 10z"/>
<path d="M1562 3180 c0 -14 2 -19 5 -12 2 6 2 18 0 25 -3 6 -5 1 -5 -13z"/>
<path d="M1601 3184 c0 -11 3 -14 6 -6 3 7 2 16 -1 19 -3 4 -6 -2 -5 -13z"/>
<path d="M2391 3184 c0 -11 3 -14 6 -6 3 7 2 16 -1 19 -3 4 -6 -2 -5 -13z"/>
<path d="M1927 3183 c-4 -3 -7 -11 -7 -17 0 -6 5 -5 12 2 6 6 9 14 7 17 -3 3
-9 2 -12 -2z"/>
<path d="M2740 3175 c0 -8 2 -15 4 -15 2 0 6 7 10 15 3 8 1 15 -4 15 -6 0 -10
-7 -10 -15z"/>
<path d="M3330 3113 c-23 -43 -46 -86 -51 -95 -5 -10 -9 -25 -9 -34 0 -8 -5
-25 -12 -37 -7 -12 -14 -33 -16 -47 -2 -13 -12 -40 -22 -60 -50 -95 -140 -305
-168 -393 -9 -29 -24 -67 -34 -85 -10 -18 -18 -38 -17 -45 0 -15 89 165 125
253 14 36 39 94 54 130 16 36 52 119 80 185 28 66 55 129 60 140 13 28 58 165
54 165 -1 0 -21 -35 -44 -77z"/>
<path d="M2246 3149 c-7 -36 -8 -74 -2 -68 7 6 19 99 13 99 -2 0 -7 -14 -11
-31z"/>
<path d="M1731 3154 c0 -11 3 -14 6 -6 3 7 2 16 -1 19 -3 4 -6 -2 -5 -13z"/>
<path d="M1891 3154 c0 -11 3 -14 6 -6 3 7 2 16 -1 19 -3 4 -6 -2 -5 -13z"/>
<path d="M1999 3125 c-5 -50 -4 -63 7 -53 3 3 4 28 2 54 l-3 49 -6 -50z"/>
<path d="M2127 3163 c-4 -3 -7 -18 -6 -32 1 -26 1 -25 10 3 9 31 7 41 -4 29z"/>
<path d="M2522 3133 c-15 -48 -8 -55 8 -8 7 20 10 38 8 41 -3 2 -10 -13 -16
-33z"/>
<path d="M1198 3142 c-3 -10 1 -30 8 -43 12 -22 13 -21 7 16 -7 48 -9 51 -15
27z"/>
<path d="M1247 3133 c2 -16 11 -62 20 -103 8 -41 17 -93 19 -115 3 -22 12 -69
20 -105 8 -36 20 -87 26 -115 5 -27 14 -59 19 -70 10 -26 2 58 -11 100 -13 44
-26 111 -56 283 -15 83 -31 152 -34 152 -4 0 -5 -12 -3 -27z"/>
<path d="M3412 3128 c-16 -44 -9 -45 11 -3 9 19 13 35 9 35 -4 0 -13 -14 -20
-32z"/>
<path d="M1653 3095 c0 -27 2 -38 4 -22 2 15 2 37 0 50 -2 12 -4 0 -4 -28z"/>
<path d="M1812 3110 c0 -19 2 -27 5 -17 2 9 2 25 0 35 -3 9 -5 1 -5 -18z"/>
<path d="M1922 3120 c0 -14 2 -19 5 -12 2 6 2 18 0 25 -3 6 -5 1 -5 -13z"/>
<path d="M931 3089 c-1 -25 5 -54 14 -65 13 -18 14 -17 14 16 0 19 -6 49 -14
65 l-13 30 -1 -46z"/>
<path d="M1305 3069 c14 -68 30 -95 20 -34 -13 81 -17 95 -25 95 -4 0 -2 -27
5 -61z"/>
<path d="M1521 3130 c-1 -3 6 -60 14 -125 8 -66 18 -142 21 -168 3 -26 7 -60
9 -75 2 -15 4 -35 4 -44 1 -10 5 -18 10 -18 6 0 7 17 5 38 -3 20 -9 66 -14
102 -5 36 -14 103 -20 150 -10 76 -26 154 -29 140z"/>
<path d="M1887 3117 c-3 -8 -2 -20 3 -26 5 -9 8 -4 8 13 0 29 -3 32 -11 13z"/>
<path d="M1608 3095 c2 -14 6 -25 8 -25 2 0 4 11 4 25 0 14 -4 25 -9 25 -4 0
-6 -11 -3 -25z"/>
<path d="M1695 3015 c10 -153 23 -176 18 -30 -3 66 -10 125 -15 130 -6 7 -7
-28 -3 -100z"/>
<path d="M1733 3078 c1 -26 5 -42 8 -35 4 7 4 28 -1 47 -7 33 -8 33 -7 -12z"/>
<path d="M597 3090 c3 -11 7 -20 9 -20 2 0 4 9 4 20 0 11 -4 20 -9 20 -5 0 -7
-9 -4 -20z"/>
<path d="M1390 3090 c0 -5 5 -10 11 -10 5 0 7 5 4 10 -3 6 -8 10 -11 10 -2 0
-4 -4 -4 -10z"/>
<path d="M2322 3080 c0 -14 2 -19 5 -12 2 6 2 18 0 25 -3 6 -5 1 -5 -13z"/>
<path d="M2812 3067 c-17 -47 -14 -59 4 -18 8 19 13 39 12 43 -2 5 -9 -6 -16
-25z"/>
<path d="M1572 3065 c0 -16 2 -22 5 -12 2 9 2 23 0 30 -3 6 -5 -1 -5 -18z"/>
<path d="M2150 3070 c0 -11 2 -20 4 -20 2 0 6 9 9 20 3 11 1 20 -4 20 -5 0 -9
-9 -9 -20z"/>
<path d="M2270 3035 c-6 -31 -10 -59 -7 -61 2 -2 9 21 16 52 7 30 11 58 8 61
-3 2 -11 -21 -17 -52z"/>
<path d="M2454 3075 c-3 -8 -4 -20 -2 -27 3 -7 7 -1 10 15 6 29 1 36 -8 12z"/>
<path d="M2651 3073 c-1 -6 -4 -20 -7 -30 -5 -17 -5 -17 6 0 6 10 9 23 6 30
-3 9 -5 9 -5 0z"/>
<path d="M1400 3054 c0 -10 5 -26 10 -34 8 -11 9 -7 4 15 -8 37 -14 45 -14 19z"/>
<path d="M2402 3050 c0 -14 2 -19 5 -12 2 6 2 18 0 25 -3 6 -5 1 -5 -13z"/>
<path d="M3456 3055 c-9 -26 -7 -32 5 -12 6 10 9 21 6 23 -2 3 -7 -2 -11 -11z"/>
<path d="M1885 3051 c-3 -5 -1 -12 5 -16 5 -3 10 1 10 9 0 18 -6 21 -15 7z"/>
<path d="M2030 3040 c0 -11 2 -20 4 -20 2 0 6 9 9 20 3 11 1 20 -4 20 -5 0 -9
-9 -9 -20z"/>
<path d="M3372 3023 c-64 -120 -102 -212 -102 -245 0 -10 -11 -39 -25 -64 -14
-25 -25 -52 -25 -62 -1 -9 -9 -35 -20 -57 -11 -22 -19 -46 -20 -52 0 -7 -5
-13 -10 -13 -6 0 -10 -6 -8 -12 1 -7 -6 -33 -16 -58 -11 -25 -20 -52 -22 -60
-1 -8 -7 -31 -13 -50 l-11 -35 20 25 c10 14 29 52 40 85 24 68 75 201 100 260
65 156 144 375 135 375 -2 0 -12 -17 -23 -37z"/>
<path d="M1811 3034 c0 -11 3 -14 6 -6 3 7 2 16 -1 19 -3 4 -6 -2 -5 -13z"/>
<path d="M2511 2939 c-18 -63 -41 -139 -52 -170 -21 -61 -24 -78 -10 -64 8 10
21 49 61 195 12 41 26 87 32 102 5 15 8 32 6 39 -2 6 -19 -39 -37 -102z"/>
<path d="M1042 3013 c0 -16 5 -33 10 -40 5 -7 7 -17 3 -23 -3 -5 -2 -10 3 -10
5 0 9 -14 10 -31 1 -32 8 -47 18 -37 3 3 0 25 -6 48 -6 23 -12 55 -12 71 -1
40 -25 60 -26 22z"/>
<path d="M1216 3025 c4 -8 8 -15 10 -15 2 0 4 7 4 15 0 8 -4 15 -10 15 -5 0
-7 -7 -4 -15z"/>
<path d="M1616 3018 c1 -13 3 -29 3 -35 1 -7 5 -13 9 -13 4 0 6 16 4 35 -2 19
-7 35 -11 35 -4 0 -7 -10 -5 -22z"/>
<path d="M1655 3006 c3 -22 8 -42 10 -45 9 -9 5 54 -5 69 -7 10 -8 3 -5 -24z"/>
<path d="M1771 3024 c0 -11 3 -14 6 -6 3 7 2 16 -1 19 -3 4 -6 -2 -5 -13z"/>
<path d="M1847 3003 c8 -52 13 -54 13 -5 0 23 -4 42 -9 42 -6 0 -7 -17 -4 -37z"/>
<path d="M2684 3015 c-9 -37 0 -40 13 -5 6 17 7 30 2 30 -5 0 -11 -11 -15 -25z"/>
<path d="M1956 3021 c-4 -7 -5 -15 -2 -18 9 -9 19 4 14 18 -4 11 -6 11 -12 0z"/>
<path d="M2305 3015 c-3 -8 -7 -22 -10 -31 -3 -8 -1 -13 4 -10 5 3 11 17 13
31 6 27 0 34 -7 10z"/>
<path d="M1582 2990 c0 -19 2 -27 5 -17 2 9 2 25 0 35 -3 9 -5 1 -5 -18z"/>
<path d="M2065 3010 c-3 -5 -1 -10 4 -10 6 0 11 5 11 10 0 6 -2 10 -4 10 -3 0
-8 -4 -11 -10z"/>
<path d="M2100 3005 c0 -8 2 -15 4 -15 2 0 6 7 10 15 3 8 1 15 -4 15 -6 0 -10
-7 -10 -15z"/>
<path d="M2142 3000 c0 -14 2 -19 5 -12 2 6 2 18 0 25 -3 6 -5 1 -5 -13z"/>
<path d="M2381 2984 c-6 -22 -17 -68 -26 -104 -9 -36 -20 -81 -25 -100 -11
-40 -12 -56 -5 -48 7 7 75 282 70 286 -2 2 -8 -13 -14 -34z"/>
<path d="M1811 2971 c-1 -32 2 -42 10 -34 7 7 7 21 1 44 l-10 34 -1 -44z"/>
<path d="M2326 2934 c-10 -41 -16 -77 -13 -80 6 -6 40 132 35 146 -1 5 -11
-24 -22 -66z"/>
<path d="M2447 2878 c-38 -136 -47 -185 -21 -113 21 58 65 226 62 236 -2 5
-20 -51 -41 -123z"/>
<path d="M1139 2981 c6 -10 8 -21 5 -23 -2 -3 2 -17 9 -31 8 -15 17 -24 20
-21 3 3 2 14 -3 23 -5 9 -11 28 -15 44 -3 15 -10 27 -16 27 -6 0 -6 -6 0 -19z"/>
<path d="M1992 2980 c0 -14 2 -19 5 -12 2 6 2 18 0 25 -3 6 -5 1 -5 -13z"/>
<path d="M1495 2980 c3 -5 8 -10 11 -10 2 0 4 5 4 10 0 6 -5 10 -11 10 -5 0
-7 -4 -4 -10z"/>
<path d="M2610 2950 c-7 -22 -11 -43 -7 -46 3 -3 11 13 17 36 15 55 7 62 -10
10z"/>
<path d="M3419 2968 c-5 -13 -20 -37 -32 -54 -13 -17 -40 -82 -61 -145 -22
-63 -43 -119 -48 -125 -7 -9 -38 -101 -43 -124 0 -3 -8 -16 -17 -30 -9 -14
-20 -37 -23 -52 -4 -16 -11 -28 -15 -28 -8 0 -21 -30 -25 -55 -1 -5 -3 -12 -4
-15 -1 -3 -4 -16 -6 -30 -2 -14 -19 -60 -39 -102 -20 -43 -36 -81 -36 -85 1
-14 131 250 156 317 13 36 28 74 34 85 5 11 26 61 46 110 20 50 45 110 56 135
23 50 78 220 72 220 -3 0 -9 -10 -15 -22z"/>
<path d="M960 2955 c1 -26 2 -28 11 -12 8 14 8 22 0 30 -8 8 -11 3 -11 -18z"/>
<path d="M1952 2960 c0 -14 2 -19 5 -12 2 6 2 18 0 25 -3 6 -5 1 -5 -13z"/>
<path d="M1320 2961 c0 -6 5 -13 10 -16 6 -3 10 1 10 9 0 9 -4 16 -10 16 -5 0
-10 -4 -10 -9z"/>
<path d="M2062 2940 c0 -19 2 -27 5 -17 2 9 2 25 0 35 -3 9 -5 1 -5 -18z"/>
<path d="M2421 2954 c0 -11 3 -14 6 -6 3 7 2 16 -1 19 -3 4 -6 -2 -5 -13z"/>
<path d="M1379 2955 c-2 -12 -2 -9 6 -66 18 -133 27 -179 36 -185 5 -3 9 2 9
10 0 10 9 16 21 16 15 0 19 5 15 15 -3 8 -8 37 -12 65 -4 27 -11 50 -16 50 -6
0 -8 -6 -5 -14 14 -35 19 -106 8 -106 -17 0 -29 41 -37 117 -7 64 -21 120 -25
98z"/>
<path d="M1420 2934 c0 -16 5 -36 11 -44 7 -11 8 -4 3 25 -8 50 -14 58 -14 19z"/>
<path d="M2021 2944 c0 -11 3 -14 6 -6 3 7 2 16 -1 19 -3 4 -6 -2 -5 -13z"/>
<path d="M2286 2945 c-3 -9 -6 -24 -5 -33 0 -9 5 -4 10 12 9 32 6 48 -5 21z"/>
<path d="M1590 2907 c4 -41 5 -41 8 -8 2 18 0 37 -5 42 -5 5 -6 -11 -3 -34z"/>
<path d="M1625 2908 c8 -46 14 -113 15 -166 0 -18 4 -31 9 -28 8 6 8 29 -3
131 -3 22 -5 55 -5 73 -1 17 -6 32 -12 32 -7 0 -8 -14 -4 -42z"/>
<path d="M2672 2827 c-51 -144 -58 -164 -47 -154 14 12 100 265 93 272 -2 2
-22 -51 -46 -118z"/>
<path d="M3485 2939 c-4 -6 -5 -12 -2 -15 2 -3 7 2 10 11 7 17 1 20 -8 4z"/>
<path d="M1660 2930 c0 -5 5 -10 11 -10 5 0 7 5 4 10 -3 6 -8 10 -11 10 -2 0
-4 -4 -4 -10z"/>
<path d="M2550 2914 c-6 -14 -10 -29 -10 -33 0 -4 -9 -34 -19 -67 -10 -32 -22
-75 -25 -94 -6 -38 48 121 63 183 10 43 5 49 -9 11z"/>
<path d="M1111 2914 c0 -11 3 -14 6 -6 3 7 2 16 -1 19 -3 4 -6 -2 -5 -13z"/>
<path d="M1336 2905 c8 -37 14 -45 14 -19 0 10 -5 26 -10 34 -8 11 -9 7 -4
-15z"/>
<path d="M2407 2911 c-4 -17 -3 -21 5 -13 5 5 8 16 6 23 -3 8 -7 3 -11 -10z"/>
<path d="M1775 2910 c3 -5 8 -10 11 -10 2 0 4 5 4 10 0 6 -5 10 -11 10 -5 0
-7 -4 -4 -10z"/>
<path d="M1506 2897 c3 -10 9 -15 12 -12 3 3 0 11 -7 18 -10 9 -11 8 -5 -6z"/>
<path d="M1880 2896 c0 -8 4 -17 8 -20 4 -2 8 4 8 15 0 10 -4 19 -8 19 -4 0
-8 -6 -8 -14z"/>
<path d="M2642 2883 c-6 -16 -14 -41 -17 -58 l-6 -30 14 30 c15 33 30 85 23
85 -2 0 -8 -12 -14 -27z"/>
<path d="M2750 2899 c0 -5 5 -7 10 -4 6 3 10 8 10 11 0 2 -4 4 -10 4 -5 0 -10
-5 -10 -11z"/>
<path d="M1206 2892 c-4 -7 -3 -19 2 -28 12 -21 22 -5 12 20 -4 13 -9 16 -14
8z"/>
<path d="M1251 2884 c0 -11 3 -14 6 -6 3 7 2 16 -1 19 -3 4 -6 -2 -5 -13z"/>
<path d="M976 2881 c-4 -7 -5 -15 -2 -18 9 -9 19 4 14 18 -4 11 -6 11 -12 0z"/>
<path d="M2580 2855 c-7 -20 -10 -39 -7 -42 3 -3 10 12 16 33 14 49 7 56 -9 9z"/>
<path d="M1168 2845 c2 -19 9 -38 15 -42 6 -4 8 2 4 18 -4 13 -7 32 -7 42 0 9
-4 17 -8 17 -4 0 -6 -16 -4 -35z"/>
<path d="M1671 2864 c0 -11 3 -14 6 -6 3 7 2 16 -1 19 -3 4 -6 -2 -5 -13z"/>
<path d="M1817 2860 c-3 -11 -1 -23 4 -26 5 -3 9 6 9 20 0 31 -6 34 -13 6z"/>
<path d="M1846 2863 c-6 -14 -5 -15 5 -6 7 7 10 15 7 18 -3 3 -9 -2 -12 -12z"/>
<path d="M1942 2845 c-2 -19 2 -35 8 -35 5 0 10 16 10 35 0 19 -4 35 -8 35 -4
0 -9 -16 -10 -35z"/>
<path d="M3433 2843 c-16 -21 -35 -60 -43 -88 -7 -27 -18 -59 -24 -70 -5 -11
-11 -24 -11 -30 -2 -19 -36 -88 -51 -102 -8 -8 -14 -19 -14 -25 0 -6 -11 -34
-25 -62 -14 -29 -27 -62 -29 -73 -3 -12 -15 -41 -27 -65 -34 -65 -39 -77 -39
-88 0 -11 -100 -229 -119 -260 -5 -8 -24 -43 -42 -77 -17 -35 -36 -63 -40 -63
-5 0 -9 -5 -9 -10 0 -6 -11 -28 -25 -50 -14 -22 -25 -43 -25 -47 1 -11 40 40
40 51 0 5 6 17 14 25 16 18 130 219 180 320 19 36 45 89 59 116 35 69 132 308
129 318 -1 4 3 7 8 7 5 0 9 3 8 8 0 4 9 30 22 57 52 114 64 142 81 193 10 28
17 52 15 52 -1 0 -16 -17 -33 -37z"/>
<path d="M1510 2860 c0 -5 5 -10 10 -10 6 0 10 5 10 10 0 6 -4 10 -10 10 -5 0
-10 -4 -10 -10z"/>
<path d="M2051 2854 c0 -11 3 -14 6 -6 3 7 2 16 -1 19 -3 4 -6 -2 -5 -13z"/>
<path d="M2080 2838 c0 -36 4 -35 14 5 4 16 2 27 -4 27 -5 0 -10 -14 -10 -32z"/>
<path d="M2729 2843 c-45 -114 -71 -212 -41 -156 13 24 62 183 56 183 -2 0 -9
-12 -15 -27z"/>
<path d="M1077 2854 c-3 -4 -3 -12 0 -18 4 -6 8 -16 9 -23 1 -7 10 -43 19 -80
10 -37 19 -78 20 -90 6 -48 17 -83 26 -83 12 0 2 78 -16 130 -7 19 -16 55 -20
80 -8 51 -28 94 -38 84z"/>
<path d="M1347 2840 c-3 -11 -1 -23 4 -26 5 -3 9 6 9 20 0 31 -6 34 -13 6z"/>
<path d="M1711 2844 c0 -11 3 -14 6 -6 3 7 2 16 -1 19 -3 4 -6 -2 -5 -13z"/>
<path d="M1131 2834 c0 -11 3 -14 6 -6 3 7 2 16 -1 19 -3 4 -6 -2 -5 -13z"/>
<path d="M1600 2810 c4 -22 5 -51 2 -65 -2 -14 0 -25 6 -25 15 0 18 39 7 88
-12 53 -25 55 -15 2z"/>
<path d="M2112 2810 c-5 -22 -6 -40 -2 -40 7 0 22 71 16 77 -2 2 -8 -14 -14
-37z"/>
<path d="M2226 2835 c-3 -9 -6 -22 -5 -28 0 -7 5 -1 10 12 5 13 8 26 5 28 -2
2 -6 -3 -10 -12z"/>
<path d="M1225 2800 c12 -71 26 -94 19 -30 -3 30 -11 60 -16 65 -7 7 -8 -5 -3
-35z"/>
<path d="M1487 2780 c3 -36 10 -74 14 -85 11 -26 3 67 -10 115 -8 28 -9 22 -4
-30z"/>
<path d="M2261 2824 c0 -11 3 -14 6 -6 3 7 2 16 -1 19 -3 4 -6 -2 -5 -13z"/>
<path d="M2296 2814 c-4 -14 -5 -29 -2 -31 3 -3 8 7 12 21 3 15 4 29 1 32 -2
3 -8 -7 -11 -22z"/>
<path d="M986 2815 c-3 -8 -1 -15 4 -15 6 0 10 7 10 15 0 8 -2 15 -4 15 -2 0
-6 -7 -10 -15z"/>
<path d="M1675 2820 c-3 -5 -1 -10 4 -10 6 0 11 5 11 10 0 6 -2 10 -4 10 -3 0
-8 -4 -11 -10z"/>
<path d="M1780 2787 c0 -26 4 -47 9 -47 8 0 3 79 -5 89 -2 2 -4 -17 -4 -42z"/>
<path d="M1712 2790 c2 -27 7 -34 21 -32 11 2 17 -4 17 -18 0 -11 4 -20 9 -20
8 0 8 21 1 40 -1 3 -1 14 0 25 l2 20 -16 -20 c-8 -11 -16 -18 -16 -15 -1 3 -3
13 -5 23 -7 35 -17 32 -13 -3z"/>
<path d="M2381 2804 c0 -11 3 -14 6 -6 3 7 2 16 -1 19 -3 4 -6 -2 -5 -13z"/>
<path d="M1821 2794 c0 -11 3 -14 6 -6 3 7 2 16 -1 19 -3 4 -6 -2 -5 -13z"/>
<path d="M1853 2787 c-2 -14 1 -16 11 -8 7 6 22 9 33 6 12 -2 24 2 26 9 3 8
-7 12 -32 12 -29 0 -37 -4 -38 -19z"/>
<path d="M2554 2771 c-4 -17 -11 -34 -15 -37 -5 -3 -9 -15 -9 -27 0 -12 4 -17
8 -11 12 13 34 95 28 102 -3 3 -9 -9 -12 -27z"/>
<path d="M1140 2780 c0 -8 5 -22 10 -30 9 -13 10 -13 10 0 0 8 -5 22 -10 30
-9 13 -10 13 -10 0z"/>
<path d="M1526 2748 c4 -24 11 -50 16 -58 6 -10 7 -2 4 25 -3 22 -6 48 -6 58
0 9 -5 17 -10 17 -6 0 -8 -16 -4 -42z"/>
<path d="M1975 2780 c3 -5 8 -10 11 -10 2 0 4 5 4 10 0 6 -5 10 -11 10 -5 0
-7 -4 -4 -10z"/>
<path d="M2171 2774 c0 -11 3 -14 6 -6 3 7 2 16 -1 19 -3 4 -6 -2 -5 -13z"/>
<path d="M2246 2775 c-3 -9 -6 -22 -5 -28 0 -7 5 -1 10 12 5 13 8 26 5 28 -2
2 -6 -3 -10 -12z"/>
<path d="M2601 2769 c-23 -58 -37 -108 -27 -98 10 9 46 112 42 117 -3 2 -10
-6 -15 -19z"/>
<path d="M3887 2767 c-9 -40 -74 -201 -111 -274 -50 -100 -45 -101 15 -2 55
92 66 106 75 96 3 -3 -3 -19 -15 -35 -12 -17 -21 -37 -21 -45 0 -8 -7 -20 -15
-27 -8 -7 -15 -17 -15 -22 0 -24 28 16 70 101 25 49 50 90 57 90 8 1 10 -5 5
-16 -16 -37 -65 -141 -99 -211 -38 -78 -40 -110 -2 -43 12 23 26 41 31 41 4 0
8 5 8 10 0 14 41 70 51 70 9 0 -59 -162 -95 -226 -42 -75 -14 -48 47 46 32 50
64 90 70 90 7 0 20 20 30 44 16 38 17 51 7 88 l-12 43 -15 -37 c-8 -21 -19
-38 -24 -38 -13 0 -12 5 12 55 23 48 20 95 -6 95 -9 0 -12 6 -9 15 4 9 0 15
-7 15 -12 0 -12 2 0 9 11 7 11 15 1 45 -14 44 -26 53 -33 23z"/>
<path d="M1680 2752 c0 -17 4 -34 10 -37 6 -4 7 6 3 27 -8 44 -13 48 -13 10z"/>
<path d="M2367 2767 c-4 -10 -7 -26 -7 -35 1 -15 2 -15 11 1 6 10 9 25 7 35
-3 16 -4 15 -11 -1z"/>
<path d="M2285 2759 c-4 -6 -5 -12 -2 -15 2 -3 7 2 10 11 7 17 1 20 -8 4z"/>
<path d="M1190 2748 c0 -7 5 -20 10 -28 8 -12 10 -9 10 13 0 15 -4 27 -10 27
-5 0 -10 -6 -10 -12z"/>
<path d="M960 2738 c0 -7 5 -20 10 -28 8 -12 10 -9 10 13 0 15 -4 27 -10 27
-5 0 -10 -6 -10 -12z"/>
<path d="M1715 2730 c3 -5 8 -10 11 -10 2 0 4 5 4 10 0 6 -5 10 -11 10 -5 0
-7 -4 -4 -10z"/>
<path d="M1375 2700 c4 -19 7 -40 8 -47 0 -7 4 -10 8 -7 10 6 0 66 -14 79 -6
7 -7 -2 -2 -25z"/>
<path d="M1161 2700 c0 -8 4 -24 9 -35 l9 -20 0 20 c0 11 -4 27 -9 35 -9 13
-10 13 -9 0z"/>
<path d="M1460 2699 c0 -8 5 -21 10 -29 8 -12 9 -10 7 7 -4 26 -17 43 -17 22z"/>
<path d="M975 2681 c-3 -5 -1 -12 5 -16 5 -3 10 1 10 9 0 18 -6 21 -15 7z"/>
<path d="M1254 2658 c3 -13 6 -30 6 -37 0 -11 3 -12 11 -4 12 12 2 63 -13 63
-6 0 -8 -10 -4 -22z"/>
<path d="M1300 2650 c0 -16 2 -30 4 -30 2 0 6 14 8 30 3 17 1 30 -4 30 -4 0
-8 -13 -8 -30z"/>
<path d="M2075 2670 c-11 -4 -42 -6 -70 -5 -27 1 -55 -2 -62 -7 -7 -5 -16 -8
-20 -5 -4 3 -19 0 -33 -6 -14 -5 -53 -9 -86 -8 -34 1 -74 -4 -90 -11 -16 -6
-38 -13 -49 -14 -34 -5 -59 -11 -76 -18 -9 -4 -29 -9 -45 -11 -16 -2 -30 -4
-31 -6 -2 -1 -8 -2 -13 -3 -6 0 -14 -6 -18 -13 -4 -6 -20 -15 -35 -18 -16 -4
-31 -14 -34 -21 -3 -8 -9 -14 -14 -14 -13 0 -37 -23 -93 -89 -38 -45 -46 -62
-46 -94 0 -30 -3 -38 -15 -34 -11 5 -14 -3 -14 -36 1 -23 -4 -54 -9 -68 -6
-15 -8 -30 -5 -33 4 -3 0 -17 -7 -30 -7 -15 -10 -38 -7 -56 4 -18 2 -39 -6
-50 -9 -16 -9 -24 1 -41 7 -11 12 -39 12 -62 -2 -49 17 -104 60 -176 16 -29
30 -61 30 -71 0 -11 4 -20 9 -20 5 0 22 -18 38 -40 16 -23 36 -40 48 -40 11 0
35 -18 55 -41 l35 -40 24 22 c16 15 26 19 29 11 2 -7 10 -12 19 -12 10 0 13 6
8 23 l-6 22 20 -22 c24 -29 45 -30 38 -3 -3 13 0 20 9 20 8 0 14 4 14 8 0 5
11 15 25 22 14 7 25 22 25 33 0 12 5 17 14 14 13 -5 29 14 31 38 0 6 4 16 8
23 5 6 5 17 2 22 -3 6 5 10 18 10 25 0 37 16 37 50 0 18 33 36 57 32 6 -2 14
2 18 8 3 5 1 10 -6 10 -8 0 -8 4 1 15 27 33 38 12 45 -86 3 -34 7 -64 10 -67
4 -4 27 43 29 60 1 3 4 9 8 13 3 4 2 20 -4 37 -8 24 -8 32 3 39 17 10 35 6 32
-9 -1 -5 7 -8 19 -4 19 5 21 2 15 -28 -6 -29 -5 -31 9 -19 13 11 17 10 25 -4
6 -9 17 -17 26 -17 10 0 13 -5 8 -17 -4 -10 -9 -24 -12 -30 -3 -7 0 -13 7 -13
7 0 10 -6 7 -14 -3 -8 5 -22 18 -32 30 -22 42 -68 24 -92 -11 -14 -11 -15 1
-4 20 18 30 15 30 -9 0 -11 4 -17 10 -14 7 4 8 -3 4 -21 -6 -23 -4 -26 11 -21
13 6 16 3 11 -8 -21 -51 -21 -51 2 -31 22 19 22 19 22 -2 0 -15 5 -20 15 -16
9 4 15 0 15 -10 0 -9 7 -16 15 -16 8 0 15 -5 15 -11 0 -8 5 -7 15 1 14 12 15
9 10 -19 l-5 -31 20 20 c22 22 45 27 34 8 -4 -7 5 -2 19 11 36 33 45 19 19
-29 -11 -22 -19 -40 -17 -40 2 0 27 30 56 66 36 46 55 62 62 55 8 -8 4 -20
-11 -41 -12 -16 -22 -32 -22 -36 0 -12 89 91 90 104 0 6 6 12 13 12 8 0 19 10
26 23 9 17 10 17 5 2 -15 -47 -16 -55 -5 -55 6 0 11 4 11 9 0 5 20 33 44 62
56 69 166 233 166 247 0 6 -7 9 -15 6 -8 -4 -15 -3 -15 1 0 17 34 115 53 153
21 41 21 44 5 53 -17 9 -17 12 2 49 18 35 19 40 4 40 -12 0 -15 7 -12 29 3 22
0 31 -13 34 -15 4 -17 10 -9 36 7 24 6 31 -6 31 -8 0 -14 10 -14 25 0 14 -4
25 -10 25 -5 0 -10 14 -10 30 0 20 -5 30 -15 30 -8 0 -15 8 -15 19 0 11 -9 21
-21 24 -16 4 -20 11 -16 26 4 16 0 21 -14 21 -12 0 -19 7 -19 20 0 11 -7 20
-15 20 -8 0 -15 9 -15 20 0 11 -6 20 -14 20 -8 0 -17 9 -21 19 -3 11 -12 22
-20 25 -8 3 -15 12 -15 21 0 8 -6 15 -14 15 -8 0 -16 7 -20 15 -3 8 -12 15
-21 15 -8 0 -15 5 -15 10 0 6 -6 10 -14 10 -8 0 -27 5 -43 12 -15 6 -36 10
-45 9 -10 -1 -18 3 -18 8 0 6 -9 11 -20 11 -11 0 -20 5 -20 11 0 5 -5 7 -10 4
-6 -4 -17 -2 -25 5 -9 8 -15 8 -20 0 -3 -6 -9 -8 -13 -6 -4 2 -45 7 -92 11
-47 4 -87 8 -90 10 -3 1 -14 -1 -25 -5z"/>
<path d="M1081 2638 c-1 -15 4 -30 9 -33 12 -7 12 12 0 40 -8 18 -9 17 -9 -7z"/>
<path d="M1210 2650 c0 -5 5 -10 10 -10 6 0 10 5 10 10 0 6 -4 10 -10 10 -5 0
-10 -4 -10 -10z"/>
<path d="M987 2630 c3 -11 9 -17 15 -14 5 3 4 12 -3 20 -16 19 -18 18 -12 -6z"/>
<path d="M1030 2629 c0 -5 5 -7 10 -4 6 3 10 8 10 11 0 2 -4 4 -10 4 -5 0 -10
-5 -10 -11z"/>
<path d="M937 2623 c-2 -4 4 -26 14 -48 l19 -40 -6 40 c-5 40 -18 64 -27 48z"/>
<path d="M1180 2621 c0 -6 5 -13 10 -16 6 -3 10 1 10 9 0 9 -4 16 -10 16 -5 0
-10 -4 -10 -9z"/>
<path d="M1050 2561 c0 -6 4 -13 10 -16 6 -3 7 1 4 9 -7 18 -14 21 -14 7z"/>
<path d="M1011 2524 c0 -11 3 -14 6 -6 3 7 2 16 -1 19 -3 4 -6 -2 -5 -13z"/>
<path d="M2865 2530 c-9 -15 -25 -70 -19 -70 6 0 35 73 30 77 -2 2 -7 -1 -11
-7z"/>
<path d="M967 2511 c-3 -12 -2 -23 3 -26 11 -7 20 19 10 34 -5 9 -9 7 -13 -8z"/>
<path d="M2896 2464 c-9 -20 -15 -39 -12 -41 3 -3 12 12 21 32 20 49 14 56 -9
9z"/>
<path d="M2936 2436 c-35 -79 -41 -109 -10 -51 26 50 47 105 38 105 -2 0 -15
-24 -28 -54z"/>
<path d="M2996 2443 c-6 -14 -5 -15 5 -6 7 7 10 15 7 18 -3 3 -9 -2 -12 -12z"/>
<path d="M2915 2270 c-3 -5 -1 -10 4 -10 6 0 11 5 11 10 0 6 -2 10 -4 10 -3 0
-8 -4 -11 -10z"/>
<path d="M3935 2249 c-11 -17 1 -21 15 -4 8 9 8 15 2 15 -6 0 -14 -5 -17 -11z"/>
<path d="M946 2215 c4 -8 8 -15 10 -15 2 0 4 7 4 15 0 8 -4 15 -10 15 -5 0 -7
-7 -4 -15z"/>
<path d="M2966 2143 c-6 -14 -5 -15 5 -6 7 7 10 15 7 18 -3 3 -9 -2 -12 -12z"/>
<path d="M4008 2097 c-8 -18 -41 -66 -72 -107 -72 -96 -72 -110 0 -26 30 36
59 66 64 66 13 0 40 54 40 80 0 30 -14 24 -32 -13z"/>
<path d="M1000 2086 c0 -8 4 -17 9 -20 5 -4 7 3 4 14 -6 23 -13 26 -13 6z"/>
<path d="M4007 1978 c-14 -24 -40 -58 -57 -75 -17 -18 -28 -33 -24 -33 4 0 -3
-11 -16 -25 -13 -14 -20 -25 -15 -25 5 0 0 -6 -11 -14 -10 -8 -15 -18 -11 -22
4 -5 11 -3 15 3 9 15 67 86 109 134 29 31 56 99 40 99 -3 0 -17 -19 -30 -42z"/>
<path d="M1070 1937 c0 -10 59 -127 65 -127 2 0 2 7 -2 16 -10 27 -63 120 -63
111z"/>
<path d="M4021 1918 c0 -10 -5 -18 -9 -18 -5 0 -15 -12 -23 -27 -8 -16 -18
-31 -24 -35 -6 -5 -6 -8 2 -8 19 0 65 67 60 87 -4 17 -5 17 -6 1z"/>
<path d="M3785 1860 c-3 -5 -1 -10 4 -10 6 0 11 5 11 10 0 6 -2 10 -4 10 -3 0
-8 -4 -11 -10z"/>
<path d="M3979 1799 c-19 -23 -41 -49 -50 -58 -23 -25 -49 -64 -49 -74 0 -4
26 22 57 60 31 37 63 76 71 86 9 9 13 19 10 22 -3 3 -20 -13 -39 -36z"/>
<path d="M3971 1721 c-17 -21 -31 -42 -31 -46 0 -5 -16 -28 -36 -51 -19 -24
-31 -44 -26 -44 14 0 132 149 132 166 0 21 -6 17 -39 -25z"/>
<path d="M3650 1685 c-7 -9 -11 -18 -8 -20 3 -3 11 1 18 10 7 9 11 18 8 20 -3
3 -11 -1 -18 -10z"/>
<path d="M1220 1652 c0 -5 10 -17 21 -28 22 -19 22 -19 10 3 -12 24 -31 39
-31 25z"/>
<path d="M1916 1644 c-4 -9 -4 -19 -2 -21 8 -8 26 8 26 23 0 19 -16 18 -24 -2z"/>
<path d="M2834 1628 c-27 -54 -67 -107 -262 -351 -26 -32 -55 -68 -64 -79 -28
-33 -21 -34 13 -2 30 28 349 447 349 459 0 17 -22 0 -36 -27z"/>
<path d="M1930 1611 c0 -5 -3 -18 -6 -28 -6 -16 -5 -16 9 2 19 23 21 35 7 35
-5 0 -10 -4 -10 -9z"/>
<path d="M3000 1595 c-7 -9 -8 -15 -2 -15 5 0 12 7 16 15 3 8 4 15 2 15 -2 0
-9 -7 -16 -15z"/>
<path d="M3950 1575 c-11 -13 -10 -14 4 -9 9 3 16 10 16 15 0 13 -6 11 -20 -6z"/>
<path d="M1294 1545 c41 -74 189 -275 208 -283 4 -2 8 -8 8 -14 0 -5 16 -26
36 -46 35 -35 36 -35 19 -7 -10 17 -25 36 -33 44 -26 26 -119 146 -131 170
-13 23 -95 136 -114 156 -5 6 -2 -3 7 -20z"/>
<path d="M2891 1533 l-22 -38 26 28 c14 15 25 32 25 38 0 17 -8 9 -29 -28z"/>
<path d="M153 1519 c11 -45 25 -53 51 -28 19 19 19 19 -3 19 -15 0 -21 5 -18
13 2 7 -5 17 -18 23 -21 10 -22 10 -12 -27z"/>
<path d="M1930 1538 c-12 -22 -12 -22 6 -6 10 10 15 20 12 24 -4 3 -12 -5 -18
-18z"/>
<path d="M1920 1480 c0 -5 5 -10 10 -10 6 0 10 5 10 10 0 6 -4 10 -10 10 -5 0
-10 -4 -10 -10z"/>
<path d="M1925 1430 c3 -5 8 -10 11 -10 2 0 4 5 4 10 0 6 -5 10 -11 10 -5 0
-7 -4 -4 -10z"/>
<path d="M1010 1422 c0 -5 7 -15 15 -22 8 -7 15 -8 15 -2 0 5 -7 15 -15 22 -8
7 -15 8 -15 2z"/>
<path d="M1300 1422 c0 -5 7 -13 16 -16 10 -4 14 -1 12 6 -5 15 -28 23 -28 10z"/>
<path d="M2786 1392 c-22 -27 -24 -32 -7 -17 20 17 47 55 39 55 -2 0 -16 -17
-32 -38z"/>
<path d="M3865 1380 c-3 -5 1 -10 9 -10 9 0 16 5 16 10 0 6 -4 10 -9 10 -6 0
-13 -4 -16 -10z"/>
<path d="M308 1308 c12 -12 25 -19 28 -15 4 4 -1 14 -12 22 -29 22 -41 18 -16
-7z"/>
<path d="M1938 1289 c-19 -11 -24 -29 -8 -29 5 0 14 9 20 20 12 23 12 23 -12
9z"/>
<path d="M2410 1285 c-7 -9 -11 -17 -9 -20 3 -2 10 5 17 15 14 24 10 26 -8 5z"/>
<path d="M2339 1263 l-24 -28 28 24 c25 23 32 31 24 31 -2 0 -14 -12 -28 -27z"/>
<path d="M351 1263 c6 -7 15 -13 20 -13 5 0 6 6 3 13 -3 8 -11 14 -19 14 -11
0 -12 -4 -4 -14z"/>
<path d="M370 1230 c0 -15 21 -23 32 -12 6 6 2 11 -11 15 -12 3 -21 1 -21 -3z"/>
<path d="M1930 1224 c0 -8 5 -12 10 -9 6 3 10 10 10 16 0 5 -4 9 -10 9 -5 0
-10 -7 -10 -16z"/>
<path d="M2639 1213 c-13 -16 -12 -17 4 -4 16 13 21 21 13 21 -2 0 -10 -8 -17
-17z"/>
<path d="M2267 1178 c-15 -17 -26 -33 -23 -35 5 -6 55 48 56 60 0 10 -1 9 -33
-25z"/>
<path d="M2449 1193 c-36 -43 -40 -55 -10 -25 19 18 32 35 29 37 -3 3 -11 -3
-19 -12z"/>
<path d="M431 1163 c13 -21 51 -65 85 -98 119 -115 226 -215 230 -215 2 0 13
-9 24 -20 21 -21 46 -28 35 -10 -3 6 -12 10 -20 10 -7 0 -16 9 -20 19 -3 11
-15 23 -26 26 -12 4 -18 13 -15 20 3 9 -6 16 -25 20 -16 4 -29 12 -29 19 0 13
-57 66 -72 66 -6 0 -8 7 -4 15 3 8 0 15 -7 15 -15 0 -77 64 -77 79 0 6 -4 11
-9 11 -13 0 -71 56 -71 69 0 6 -5 11 -11 11 -6 0 0 -17 12 -37z"/>
<path d="M1740 1179 c0 -5 5 -7 10 -4 6 3 10 8 10 11 0 2 -4 4 -10 4 -5 0 -10
-5 -10 -11z"/>
<path d="M1946 1135 c-9 -9 -16 -22 -16 -28 0 -6 10 -2 22 11 12 12 19 24 16
27 -3 3 -13 -1 -22 -10z"/>
<path d="M1981 1123 c-1 -15 -41 -58 -60 -64 -11 -4 -11 -7 2 -17 12 -10 19
-5 41 29 15 22 25 46 22 52 -3 9 -5 9 -5 0z"/>
<path d="M3729 1073 c-31 -27 -68 -57 -84 -68 -33 -24 -104 -81 -180 -147 -30
-26 -73 -59 -95 -73 -50 -32 -184 -139 -275 -220 -38 -34 -99 -86 -135 -114
-81 -64 -157 -124 -190 -150 -14 -11 -22 -23 -18 -26 3 -4 15 2 26 13 11 11
48 39 83 63 35 23 66 45 69 48 3 3 39 33 80 66 41 33 84 67 95 76 32 27 117
96 165 134 25 20 77 62 117 93 231 184 382 309 392 325 23 35 4 27 -50 -20z"/>
<path d="M3640 1060 c-8 -5 -11 -12 -7 -16 4 -4 13 -2 19 4 15 15 7 24 -12 12z"/>
<path d="M3655 959 c-33 -27 -85 -69 -115 -92 -39 -30 -50 -43 -38 -45 9 -2
32 10 50 27 18 16 55 44 82 63 47 31 109 99 90 97 -5 0 -36 -23 -69 -50z"/>
<path d="M3455 800 c-3 -5 1 -10 9 -10 9 0 16 5 16 10 0 6 -4 10 -9 10 -6 0
-13 -4 -16 -10z"/>
<path d="M3378 739 c-10 -5 -18 -14 -18 -19 0 -14 28 -1 34 16 6 16 6 16 -16
3z"/>
<path d="M3496 729 c-18 -14 -26 -16 -26 -7 -1 7 -8 1 -16 -14 -8 -16 -29 -35
-47 -43 -18 -8 -61 -35 -96 -60 -36 -25 -67 -43 -69 -40 -3 3 -16 -13 -29 -35
-13 -22 -28 -40 -34 -40 -11 0 -170 -107 -184 -125 -5 -6 -23 -19 -40 -28 -30
-15 -85 -67 -71 -67 28 0 230 125 313 194 34 28 92 73 130 101 37 27 100 80
138 117 69 67 83 88 31 47z"/>
<path d="M906 713 c5 -5 12 -12 16 -18 4 -6 8 -2 8 8 0 9 -7 17 -17 17 -9 0
-12 -3 -7 -7z"/>
<path d="M980 650 c0 -5 7 -10 16 -10 8 0 12 5 9 10 -3 6 -10 10 -16 10 -5 0
-9 -4 -9 -10z"/>
<path d="M1095 560 c3 -5 8 -10 11 -10 2 0 4 5 4 10 0 6 -5 10 -11 10 -5 0 -7
-4 -4 -10z"/>
<path d="M2384 418 c-16 -18 -20 -26 -9 -18 31 23 48 41 43 45 -2 3 -18 -10
-34 -27z"/>
<path d="M3015 430 c-3 -5 -1 -10 4 -10 6 0 11 5 11 10 0 6 -2 10 -4 10 -3 0
-8 -4 -11 -10z"/>
<path d="M2980 403 c-17 -7 -75 -53 -65 -53 13 0 62 29 74 44 14 17 14 17 -9
9z"/>
<path d="M2345 338 c-153 -134 -269 -248 -252 -248 10 0 59 39 109 88 50 48
123 117 161 155 88 84 76 88 -18 5z"/>
<path d="M2860 320 c-32 -26 -53 -41 -81 -60 -35 -24 -73 -60 -62 -60 16 0
127 76 157 109 33 35 24 41 -14 11z"/>
<path d="M2709 253 c-8 -9 -27 -24 -44 -35 -16 -10 -24 -18 -18 -18 15 0 92
52 93 63 0 13 -17 8 -31 -10z"/>
</g>
</svg>
